<svg width="32" height="32" viewBox="0 0 32 32" fill="none" xmlns="http://www.w3.org/2000/svg">
<g id="2">
<g id="note_alt" filter="url(#filter0_b_543_3253)">
<path d="M10.762 22.4378H13.0221L19.4796 16.1943L17.1657 13.9382L10.762 20.1818V22.4378ZM20.2329 15.4597L21.363 14.3055C21.4706 14.2005 21.5244 14.0781 21.5244 13.9382C21.5244 13.7983 21.4706 13.6759 21.363 13.5709L19.8563 12.1019C19.7486 11.9969 19.6231 11.9445 19.4796 11.9445C19.3361 11.9445 19.2105 11.9969 19.1029 12.1019L17.919 13.2037L20.2329 15.4597ZM8.60952 26.6352C8.01758 26.6352 7.51085 26.4297 7.08932 26.0187C6.6678 25.6077 6.45703 25.1136 6.45703 24.5365V9.84579C6.45703 9.26865 6.6678 8.77459 7.08932 8.3636C7.51085 7.95261 8.01758 7.74711 8.60952 7.74711H13.1297C13.3629 7.11751 13.7531 6.61033 14.3002 6.22557C14.8472 5.84082 15.4616 5.64844 16.1432 5.64844C16.8248 5.64844 17.4392 5.84082 17.9863 6.22557C18.5334 6.61033 18.9235 7.11751 19.1567 7.74711H23.6769C24.2689 7.74711 24.7756 7.95261 25.1971 8.3636C25.6186 8.77459 25.8294 9.26865 25.8294 9.84579V24.5365C25.8294 25.1136 25.6186 25.6077 25.1971 26.0187C24.7756 26.4297 24.2689 26.6352 23.6769 26.6352H8.60952ZM16.1432 9.05878C16.3764 9.05878 16.5692 8.98446 16.7217 8.8358C16.8742 8.68714 16.9504 8.49914 16.9504 8.27178C16.9504 8.04442 16.8742 7.85642 16.7217 7.70776C16.5692 7.55911 16.3764 7.48478 16.1432 7.48478C15.91 7.48478 15.7172 7.55911 15.5647 7.70776C15.4123 7.85642 15.336 8.04442 15.336 8.27178C15.336 8.49914 15.4123 8.68714 15.5647 8.8358C15.7172 8.98446 15.91 9.05878 16.1432 9.05878Z" fill="#191919"/>
</g>
</g>
<defs>
<filter id="filter0_b_543_3253" x="2.08912" y="1.28053" width="28.1084" height="29.7226" filterUnits="userSpaceOnUse" color-interpolation-filters="sRGB">
<feFlood flood-opacity="0" result="BackgroundImageFix"/>
<feGaussianBlur in="BackgroundImageFix" stdDeviation="2.18396"/>
<feComposite in2="SourceAlpha" operator="in" result="effect1_backgroundBlur_543_3253"/>
<feBlend mode="normal" in="SourceGraphic" in2="effect1_backgroundBlur_543_3253" result="shape"/>
</filter>
</defs>
</svg>
