<svg width="48" height="48" viewBox="0 0 48 48" fill="none" xmlns="http://www.w3.org/2000/svg">
<g id="icon/&#236;&#160;&#149;&#235;&#166;&#172;&#235;&#133;&#184;&#237;&#138;&#184;">
<mask id="mask0_543_3446" style="mask-type:alpha" maskUnits="userSpaceOnUse" x="0" y="0" width="48" height="48">
<rect id="Bounding box" width="48" height="48" fill="#D9D9D9"/>
</mask>
<g mask="url(#mask0_543_3446)">
<path id="folder_check" d="M22.1842 27.152L19.6611 24.6438C19.4261 24.4091 19.1512 24.2891 18.8364 24.2838C18.5217 24.2788 18.2418 24.3988 17.9968 24.6438C17.7621 24.8786 17.6447 25.1574 17.6447 25.4803C17.6447 25.8032 17.7621 26.082 17.9968 26.3167L21.1457 29.505C21.4312 29.7905 21.7708 29.9333 22.1645 29.9333C22.5582 29.9333 22.8978 29.7905 23.1833 29.505L29.7114 22.9614C29.9462 22.7267 30.0636 22.4479 30.0636 22.125C30.0636 21.8021 29.9462 21.5233 29.7114 21.2886C29.4767 21.0538 29.1979 20.9364 28.875 20.9364C28.5521 20.9364 28.2733 21.0538 28.0386 21.2886L22.1842 27.152ZM11.8543 35.6842C11.0567 35.6842 10.3816 35.4079 9.82895 34.8553C9.27632 34.3026 9 33.6275 9 32.8299V14.8543C9 14.0567 9.27632 13.3816 9.82895 12.8289C10.3816 12.2763 11.0567 12 11.8543 12H19.3421C19.7226 12 20.0886 12.0739 20.4399 12.2218C20.7909 12.3695 21.0961 12.5729 21.3553 12.8321L23.6811 15.1579H36.1457C36.9433 15.1579 37.6184 15.4342 38.1711 15.9868C38.7237 16.5395 39 17.2146 39 18.0122V32.8299C39 33.6275 38.7237 34.3026 38.1711 34.8553C37.6184 35.4079 36.9433 35.6842 36.1457 35.6842H11.8543Z" fill="#191919"/>
</g>
</g>
</svg>
