<svg width="48" height="48" viewBox="0 0 48 48" fill="none" xmlns="http://www.w3.org/2000/svg">
<g id="icon/&#236;&#139;&#160;&#236;&#178;&#180;&#234;&#178;&#128;&#236;&#167;&#132;">
<mask id="mask0_543_3439" style="mask-type:alpha" maskUnits="userSpaceOnUse" x="0" y="0" width="48" height="48">
<rect id="Bounding box" width="48" height="48" fill="#D9D9D9"/>
</mask>
<g mask="url(#mask0_543_3439)">
<path id="breaking_news_alt_1" d="M16.0741 31.2237H21.0052C21.3296 31.2237 21.6014 31.1139 21.8207 30.8944C22.0402 30.6748 22.15 30.4029 22.15 30.0786C22.15 29.754 22.0402 29.4822 21.8207 29.2631C21.6014 29.0438 21.3296 28.9342 21.0052 28.9342H16.0741C15.7498 28.9342 15.4778 29.044 15.2583 29.2635C15.039 29.483 14.9294 29.755 14.9294 30.0793C14.9294 30.4039 15.039 30.6757 15.2583 30.8948C15.4778 31.114 15.7498 31.2237 16.0741 31.2237ZM16.0741 25.1184H21.0052C21.3296 25.1184 21.6014 25.0087 21.8207 24.7891C22.0402 24.5696 22.15 24.2976 22.15 23.9733C22.15 23.6487 22.0402 23.3769 21.8207 23.1579C21.6014 22.9386 21.3296 22.8289 21.0052 22.8289H16.0741C15.7498 22.8289 15.4778 22.9387 15.2583 23.1582C15.039 23.3778 14.9294 23.6497 14.9294 23.9741C14.9294 24.2987 15.039 24.5705 15.2583 24.7895C15.4778 25.0088 15.7498 25.1184 16.0741 25.1184ZM30.9255 16.7237C30.6012 16.7237 30.3294 16.8335 30.1101 17.053C29.8911 17.2723 29.7816 17.5441 29.7816 17.8684V23.9737C29.7816 24.298 29.8912 24.5698 30.1105 24.7891C30.33 25.0087 30.6021 25.1184 30.9267 25.1184C31.251 25.1184 31.5228 25.0087 31.7421 24.7891C31.9611 24.5698 32.0706 24.298 32.0706 23.9737V17.8684C32.0706 17.5441 31.961 17.2723 31.7417 17.053C31.5222 16.8335 31.2501 16.7237 30.9255 16.7237ZM16.0741 19.0132H21.0052C21.3296 19.0132 21.6014 18.9034 21.8207 18.6839C22.0402 18.4643 22.15 18.1924 22.15 17.868C22.15 17.5434 22.0402 17.2716 21.8207 17.0526C21.6014 16.8333 21.3296 16.7237 21.0052 16.7237H16.0741C15.7498 16.7237 15.4778 16.8335 15.2583 17.053C15.039 17.2725 14.9294 17.5445 14.9294 17.8688C14.9294 18.1934 15.039 18.4652 15.2583 18.6842C15.4778 18.9035 15.7498 19.0132 16.0741 19.0132ZM11.7592 36.9474C10.9882 36.9474 10.3355 36.6803 9.80132 36.146C9.26711 35.6118 9 34.9592 9 34.1882V13.7592C9 12.9882 9.26711 12.3355 9.80132 11.8013C10.3355 11.2671 10.9882 11 11.7592 11H35.2408C36.0118 11 36.6645 11.2671 37.1987 11.8013C37.7329 12.3355 38 12.9882 38 13.7592V34.1882C38 34.9592 37.7329 35.6118 37.1987 36.146C36.6645 36.6803 36.0118 36.9474 35.2408 36.9474H11.7592ZM30.9267 31.2237C31.251 31.2237 31.5228 31.1139 31.7421 30.8944C31.9611 30.6748 32.0706 30.4029 32.0706 30.0786C32.0706 29.754 31.961 29.4822 31.7417 29.2631C31.5222 29.0438 31.2501 28.9342 30.9255 28.9342C30.6012 28.9342 30.3294 29.044 30.1101 29.2635C29.8911 29.483 29.7816 29.755 29.7816 30.0793C29.7816 30.4039 29.8912 30.6757 30.1105 30.8948C30.33 31.114 30.6021 31.2237 30.9267 31.2237Z" fill="#191919"/>
</g>
</g>
</svg>
