<svg width="32" height="22" viewBox="0 0 32 22" fill="none" xmlns="http://www.w3.org/2000/svg">
<g id="arrow_back_2">
<mask id="mask0_432_2426" style="mask-type:alpha" maskUnits="userSpaceOnUse" x="0" y="0" width="32" height="22">
<rect id="Bounding box" x="0.759766" y="21.5334" width="20.8" height="31" transform="rotate(-90 0.759766 21.5334)" fill="#D9D9D9"/>
</mask>
<g mask="url(#mask0_432_2426)">
<path id="arrow_back_2_2" d="M17.3581 16.0519C17.229 16.1819 17.0675 16.2794 16.8738 16.3444C16.68 16.4094 16.4755 16.4419 16.2602 16.4419C16.0449 16.4419 15.8404 16.4094 15.6467 16.3444C15.4529 16.2794 15.2915 16.1819 15.1623 16.0519L8.47793 8.98856C8.41335 8.91634 8.36491 8.84051 8.33262 8.76106C8.30033 8.68162 8.28418 8.60578 8.28418 8.53356C8.28418 8.30245 8.40796 8.10023 8.65553 7.9269C8.9031 7.75356 9.20987 7.66689 9.57585 7.66689L22.9446 7.66689C23.3106 7.66689 23.6173 7.75356 23.8649 7.92689C24.1125 8.10023 24.2363 8.30245 24.2363 8.53356C24.2363 8.60578 24.2201 8.68162 24.1878 8.76106C24.1555 8.84051 24.1071 8.91634 24.0425 8.98856L17.3581 16.0519Z" fill="#6B778A"/>
</g>
</g>
</svg>
