<svg width="27" height="30" viewBox="0 0 27 30" fill="none" xmlns="http://www.w3.org/2000/svg">
<g id="Group 326">
<path id="note_alt" d="M6 24H9.15L18.15 15.075L14.925 11.85L6 20.775V24ZM19.2 14.025L20.775 12.375C20.925 12.225 21 12.05 21 11.85C21 11.65 20.925 11.475 20.775 11.325L18.675 9.225C18.525 9.075 18.35 9 18.15 9C17.95 9 17.775 9.075 17.625 9.225L15.975 10.8L19.2 14.025ZM3 30C2.175 30 1.46875 29.7063 0.88125 29.1188C0.29375 28.5312 0 27.825 0 27V6C0 5.175 0.29375 4.46875 0.88125 3.88125C1.46875 3.29375 2.175 3 3 3H9.3C9.625 2.1 10.1688 1.375 10.9313 0.825C11.6938 0.275 12.55 0 13.5 0C14.45 0 15.3063 0.275 16.0688 0.825C16.8313 1.375 17.375 2.1 17.7 3H24C24.825 3 25.5313 3.29375 26.1188 3.88125C26.7063 4.46875 27 5.175 27 6V27C27 27.825 26.7063 28.5312 26.1188 29.1188C25.5313 29.7063 24.825 30 24 30H3ZM13.5 4.875C13.825 4.875 14.0938 4.76875 14.3063 4.55625C14.5188 4.34375 14.625 4.075 14.625 3.75C14.625 3.425 14.5188 3.15625 14.3063 2.94375C14.0938 2.73125 13.825 2.625 13.5 2.625C13.175 2.625 12.9063 2.73125 12.6938 2.94375C12.4813 3.15625 12.375 3.425 12.375 3.75C12.375 4.075 12.4813 4.34375 12.6938 4.55625C12.9063 4.76875 13.175 4.875 13.5 4.875Z" fill="#191919"/>
</g>
</svg>
