<svg width="68" height="68" viewBox="0 0 68 68" fill="none" xmlns="http://www.w3.org/2000/svg">
<g id="Component 3" clip-path="url(#clip0_1542_75)">
<path id="Rectangle 704" d="M38.9619 37.9088L38.6754 37.3083L38.3586 37.4607L38.2879 37.7958C36.682 45.4148 31.9779 50.7283 28.8806 54.2267C28.485 54.6736 28.1155 55.0909 27.7821 55.4796L27.1559 56.2097L28.0449 56.5307L28.3035 55.8999C28.0449 56.5307 28.045 56.5308 28.0452 56.5308L28.0458 56.531L28.0477 56.5317L28.0543 56.5341L28.079 56.5429C28.1005 56.5505 28.132 56.5617 28.1729 56.5759C28.2547 56.6045 28.3743 56.6458 28.5276 56.6973C28.8341 56.8003 29.2756 56.9443 29.8187 57.1098C30.9039 57.4405 32.4001 57.8583 34.0402 58.2049C35.677 58.5508 37.4758 58.8299 39.1615 58.875C40.8297 58.9197 42.4747 58.7387 43.7453 58.0904C45.1975 57.3494 46.6376 56.0232 47.9137 54.4087C49.1962 52.7862 50.3452 50.8321 51.2 48.785C52.887 44.7448 53.5162 40.1095 51.4092 36.9869C50.6078 35.7991 49.3213 35.286 47.9642 35.1407C46.6152 34.9963 45.1248 35.2043 43.7697 35.524C42.4067 35.8455 41.1357 36.2911 40.2093 36.6539C39.745 36.8359 39.3643 36.9981 39.0987 37.1154C38.9658 37.1741 38.8615 37.2216 38.7897 37.2548C38.7538 37.2714 38.726 37.2844 38.7068 37.2934L38.6845 37.304L38.6783 37.307L38.6764 37.3079L38.6758 37.3082C38.6756 37.3083 38.6754 37.3083 38.9619 37.9088Z" fill="#5039FA" stroke="#5039FA" stroke-width="1.36" stroke-linecap="round"/>
<g id="Union" filter="url(#filter0_bdi_1542_75)">
<path fill-rule="evenodd" clip-rule="evenodd" d="M25.8871 6.38408C25.7234 5.06825 26.5293 3.87471 27.8042 3.46151L28.7012 3.17076C30.7549 2.50513 32.9048 4.13552 33.0388 6.26209C33.3021 10.4388 34.3879 13.1935 36.0534 15.5376C37.1801 17.1234 39.3847 17.3018 41.0939 16.3728C45.2768 14.0994 50.0748 12.5856 53.2092 14.0397C58.1008 16.3089 60.4714 21.6875 60.896 27.0065C61.3124 32.223 60.588 45.1279 56.7032 51.6438C48.8573 64.8037 32.687 64.5337 25.2574 60.7206C21.6872 58.8883 20.5303 56.1568 20.6258 53.5809C20.6688 52.4226 19.926 51.2763 18.9234 50.6947C17.7658 50.0233 16.3177 49.4444 14.7001 49.3726C12.2775 49.2651 9.17389 49.6809 6.75711 50.1038C4.7959 50.447 2.94723 48.9384 2.99962 46.9494C3.03797 45.4936 4.10544 44.2575 5.55308 44.0925C11.2878 43.4388 17.1221 43.7638 22.7391 44.5889C24.4413 44.8389 26.445 45.6976 28.0742 45.1447C28.1161 45.1304 28.1579 45.1163 28.1995 45.1022C31.9347 43.8358 34.6679 42.9092 33.6429 32.1934C33.4881 30.5741 33.2758 29.2421 33.0951 28.1077C32.937 27.1158 32.8031 26.2749 32.7526 25.5253C32.6694 24.2903 32.4388 23.0076 31.7031 22.0121C30.2805 20.087 28.8394 17.948 28.1793 16.3885C26.9102 13.3901 26.2134 9.00756 25.8871 6.38408Z" fill="url(#paint0_linear_1542_75)" fill-opacity="0.7" shape-rendering="crispEdges"/>
</g>
</g>
<defs>
<filter id="filter0_bdi_1542_75" x="-8.45471" y="-8.43322" width="80.9079" height="82.8865" filterUnits="userSpaceOnUse" color-interpolation-filters="sRGB">
<feFlood flood-opacity="0" result="BackgroundImageFix"/>
<feGaussianBlur in="BackgroundImageFix" stdDeviation="2.86331"/>
<feComposite in2="SourceAlpha" operator="in" result="effect1_backgroundBlur_1542_75"/>
<feColorMatrix in="SourceAlpha" type="matrix" values="0 0 0 0 0 0 0 0 0 0 0 0 0 0 0 0 0 0 127 0" result="hardAlpha"/>
<feOffset/>
<feGaussianBlur stdDeviation="5.72662"/>
<feComposite in2="hardAlpha" operator="out"/>
<feColorMatrix type="matrix" values="0 0 0 0 0.231373 0 0 0 0 0.407843 0 0 0 0 1 0 0 0 0.1 0"/>
<feBlend mode="normal" in2="effect1_backgroundBlur_1542_75" result="effect2_dropShadow_1542_75"/>
<feBlend mode="normal" in="SourceGraphic" in2="effect2_dropShadow_1542_75" result="shape"/>
<feColorMatrix in="SourceAlpha" type="matrix" values="0 0 0 0 0 0 0 0 0 0 0 0 0 0 0 0 0 0 127 0" result="hardAlpha"/>
<feOffset/>
<feGaussianBlur stdDeviation="4.29497"/>
<feComposite in2="hardAlpha" operator="arithmetic" k2="-1" k3="1"/>
<feColorMatrix type="matrix" values="0 0 0 0 0.231373 0 0 0 0 0.407843 0 0 0 0 1 0 0 0 0.38 0"/>
<feBlend mode="normal" in2="shape" result="effect3_innerShadow_1542_75"/>
</filter>
<linearGradient id="paint0_linear_1542_75" x1="50.3422" y1="0.755988" x2="39.7346" y2="62.0993" gradientUnits="userSpaceOnUse">
<stop offset="0.215" stop-color="#71EFD1" stop-opacity="0.1"/>
<stop offset="1" stop-color="#A7A5FB"/>
</linearGradient>
<clipPath id="clip0_1542_75">
<rect width="68" height="68" fill="white"/>
</clipPath>
</defs>
</svg>
