<svg width="68" height="64" viewBox="0 0 68 64" fill="none" xmlns="http://www.w3.org/2000/svg">
<g id="Group 331">
<path id="Vector (Stroke)" d="M36.1679 2.44829C36.1679 1.56506 35.492 0.76043 34.5529 0.76043C33.6139 0.76043 32.9379 1.56506 32.9379 2.44829V18.1409C32.9379 19.0281 32.562 19.8523 31.9396 20.3857L25.581 25.8356C24.899 26.4202 24.7993 27.4571 25.3264 28.1717C25.8751 28.9156 26.9166 29.0574 27.6299 28.446L33.9885 22.9961C34.2271 22.7916 34.4481 22.5692 34.6505 22.3317L41.957 28.4574C42.6774 29.0614 43.717 28.9064 44.2574 28.1574C44.7768 27.4377 44.6677 26.4016 43.9789 25.8241L36.0825 19.2039C36.139 18.8555 36.1679 18.5 36.1679 18.1409V2.44829Z" fill="#5039FA" stroke="#5039FA" stroke-width="1.36" stroke-linecap="round"/>
<g id="Rectangle 700" filter="url(#filter0_bdi_1542_2470)">
<path d="M12.0935 19.0779C15.518 16.0471 19.6269 14.3017 22.9827 13.3054C26.3854 12.2951 29.4104 15.0404 29.4104 18.5899V51.7605C29.4104 55.1404 26.6703 57.8804 23.2903 57.8804H7.37163C4.03597 57.8804 1.33657 55.2133 1.52356 51.8829C2.02881 42.8839 4.06164 26.1866 12.0935 19.0779Z" fill="url(#paint0_linear_1542_2470)" fill-opacity="0.7" shape-rendering="crispEdges"/>
</g>
<g id="Rectangle 701" filter="url(#filter1_bdi_1542_2470)">
<path d="M56.0772 19.0779C52.6527 16.0471 48.5438 14.3017 45.188 13.3054C41.7852 12.2951 38.7603 15.0404 38.7603 18.5899V51.7605C38.7603 55.1404 41.5003 57.8804 44.8803 57.8804H60.799C64.1347 57.8804 66.8341 55.2133 66.6471 51.8829C66.1418 42.8839 64.109 26.1866 56.0772 19.0779Z" fill="url(#paint1_linear_1542_2470)" fill-opacity="0.7" shape-rendering="crispEdges"/>
</g>
</g>
<defs>
<filter id="filter0_bdi_1542_2470" x="-9.93884" y="1.64051" width="50.8025" height="67.6931" filterUnits="userSpaceOnUse" color-interpolation-filters="sRGB">
<feFlood flood-opacity="0" result="BackgroundImageFix"/>
<feGaussianBlur in="BackgroundImageFix" stdDeviation="2.86331"/>
<feComposite in2="SourceAlpha" operator="in" result="effect1_backgroundBlur_1542_2470"/>
<feColorMatrix in="SourceAlpha" type="matrix" values="0 0 0 0 0 0 0 0 0 0 0 0 0 0 0 0 0 0 127 0" result="hardAlpha"/>
<feOffset/>
<feGaussianBlur stdDeviation="5.72662"/>
<feComposite in2="hardAlpha" operator="out"/>
<feColorMatrix type="matrix" values="0 0 0 0 0.231373 0 0 0 0 0.407843 0 0 0 0 1 0 0 0 0.1 0"/>
<feBlend mode="normal" in2="effect1_backgroundBlur_1542_2470" result="effect2_dropShadow_1542_2470"/>
<feBlend mode="normal" in="SourceGraphic" in2="effect2_dropShadow_1542_2470" result="shape"/>
<feColorMatrix in="SourceAlpha" type="matrix" values="0 0 0 0 0 0 0 0 0 0 0 0 0 0 0 0 0 0 127 0" result="hardAlpha"/>
<feOffset/>
<feGaussianBlur stdDeviation="4.29497"/>
<feComposite in2="hardAlpha" operator="arithmetic" k2="-1" k3="1"/>
<feColorMatrix type="matrix" values="0 0 0 0 0.231373 0 0 0 0 0.407843 0 0 0 0 1 0 0 0 0.38 0"/>
<feBlend mode="normal" in2="shape" result="effect3_innerShadow_1542_2470"/>
</filter>
<filter id="filter1_bdi_1542_2470" x="27.307" y="1.64051" width="50.8025" height="67.6931" filterUnits="userSpaceOnUse" color-interpolation-filters="sRGB">
<feFlood flood-opacity="0" result="BackgroundImageFix"/>
<feGaussianBlur in="BackgroundImageFix" stdDeviation="2.86331"/>
<feComposite in2="SourceAlpha" operator="in" result="effect1_backgroundBlur_1542_2470"/>
<feColorMatrix in="SourceAlpha" type="matrix" values="0 0 0 0 0 0 0 0 0 0 0 0 0 0 0 0 0 0 127 0" result="hardAlpha"/>
<feOffset/>
<feGaussianBlur stdDeviation="5.72662"/>
<feComposite in2="hardAlpha" operator="out"/>
<feColorMatrix type="matrix" values="0 0 0 0 0.231373 0 0 0 0 0.407843 0 0 0 0 1 0 0 0 0.1 0"/>
<feBlend mode="normal" in2="effect1_backgroundBlur_1542_2470" result="effect2_dropShadow_1542_2470"/>
<feBlend mode="normal" in="SourceGraphic" in2="effect2_dropShadow_1542_2470" result="shape"/>
<feColorMatrix in="SourceAlpha" type="matrix" values="0 0 0 0 0 0 0 0 0 0 0 0 0 0 0 0 0 0 127 0" result="hardAlpha"/>
<feOffset/>
<feGaussianBlur stdDeviation="4.29497"/>
<feComposite in2="hardAlpha" operator="arithmetic" k2="-1" k3="1"/>
<feColorMatrix type="matrix" values="0 0 0 0 0.231373 0 0 0 0 0.407843 0 0 0 0 1 0 0 0 0.38 0"/>
<feBlend mode="normal" in2="shape" result="effect3_innerShadow_1542_2470"/>
</filter>
<linearGradient id="paint0_linear_1542_2470" x1="3.87404" y1="-1.46455" x2="21.7931" y2="52.3153" gradientUnits="userSpaceOnUse">
<stop offset="0.215" stop-color="#71EFD1" stop-opacity="0.1"/>
<stop offset="1" stop-color="#A7A5FB"/>
</linearGradient>
<linearGradient id="paint1_linear_1542_2470" x1="64.2966" y1="-1.46455" x2="46.3776" y2="52.3153" gradientUnits="userSpaceOnUse">
<stop offset="0.215" stop-color="#71EFD1" stop-opacity="0.1"/>
<stop offset="1" stop-color="#A7A5FB"/>
</linearGradient>
</defs>
</svg>
