<svg width="68" height="68" viewBox="0 0 68 68" fill="none" xmlns="http://www.w3.org/2000/svg">
<g id="Component 3" clip-path="url(#clip0_1542_234)">
<path id="Vector" fill-rule="evenodd" clip-rule="evenodd" d="M46.9919 41.4992L46.9992 41.5293L47.0213 41.5599L47.0582 41.5914L47.1104 41.6243L47.1782 41.659L47.2622 41.6961L47.3628 41.7361L47.4809 41.7796L47.6171 41.8272L47.772 41.8795L47.9465 41.9371L48.141 42.0009L48.356 42.0714L48.5916 42.1493L48.8478 42.2354L49.1238 42.33L49.4185 42.4338L49.7301 42.5469L50.0558 42.6694L50.3921 42.8011L50.7345 42.9414L51.0774 43.0894L51.4145 43.2435L51.7385 43.402L52.0417 43.5624L52.3159 43.7219L52.5531 43.8776L52.7459 44.0261L52.8877 44.1641L52.9736 44.2883L53 44.3959L52.9657 44.4845L52.8714 44.5524L52.72 44.5985L52.5161 44.6226L52.266 44.6254L51.977 44.6079L51.6572 44.5722L51.3149 44.5204L50.9582 44.4551L50.5947 44.3791L50.2311 44.2951L49.8734 44.2057L49.5264 44.1133L49.1938 44.0201L48.8787 43.9279L48.5829 43.8383L48.3078 43.7526L48.0538 43.6718L47.8211 43.5967L47.6095 43.5278L47.4182 43.4657L47.2465 43.4105L47.0937 43.3625L46.9586 43.3218L46.8404 43.2885L46.7382 43.2627L46.6511 43.2444L46.5783 43.2338L46.5191 43.2308L46.4729 43.2358L46.4392 43.2489L46.4177 43.2704L46.4079 43.3006L46.4098 43.3399L46.4233 43.3889L46.4482 43.4481L46.4847 43.5181L46.5329 43.5997L46.5929 43.6936L46.665 43.8008L46.7494 43.9222L46.8463 44.0586L46.9558 44.2111L47.078 44.3804L47.2128 44.5674L47.3599 44.7728L47.5188 44.9968L47.6884 45.2395L47.8677 45.5005L48.0547 45.7789L48.2473 46.0728L48.4425 46.38L48.637 46.6971L48.8269 47.02L49.0075 47.3435L49.1743 47.6617L49.3222 47.968L49.4464 48.2554L49.5421 48.5165L49.6056 48.7444L49.6335 48.9328L49.6238 49.076L49.5758 49.1702L49.49 49.2129L49.3681 49.2034L49.2134 49.1428L49.0297 49.0341L48.8221 48.8816L48.5958 48.6909L48.3561 48.4682L48.1085 48.2204L47.8579 47.9543L47.6088 47.6766L47.365 47.3934L47.1294 47.1102L46.9047 46.8315L46.6924 46.5614L46.4937 46.3028L46.3093 46.0581L46.1392 45.829L45.9834 45.6165L45.8414 45.4212L45.7126 45.2434L45.5962 45.0831L45.4916 44.94L45.3977 44.8137L45.3139 44.7037L45.2392 44.6096L45.173 44.5309L45.1145 44.4672L45.0629 44.4179L45.0178 44.383L44.9784 44.3621L44.9444 44.3551L44.9152 44.3622L44.8903 44.3832L44.8695 44.4186L44.8523 44.4687L44.8384 44.5338L44.8274 44.6147L44.8191 44.712L44.8131 44.8264L44.809 44.9588L44.8066 45.11L44.8053 45.281L44.8048 45.4725L44.8046 45.6853L44.8042 45.9199L44.8029 46.1767L44.8 46.4554L44.7948 46.7555L44.7866 47.0758L44.7744 47.4143L44.7573 47.7682L44.7345 48.1337L44.7052 48.5058L44.6686 48.8788L44.6242 49.2457L44.5716 49.5987L44.5107 49.9296L44.4417 50.2295L44.3652 50.4902L44.2821 50.7036L44.1938 50.8629L44.1016 50.9629L44.0075 51L43.9131 50.973L43.8206 50.8829L43.7315 50.7327L43.6475 50.5275L43.5699 50.2739L43.4996 49.9796L43.4374 49.6531L43.3835 49.3031L43.3378 48.9379L43.3 48.5654L43.2695 48.1926L43.2458 47.8257L43.2279 47.4697L43.2149 47.1285L43.2061 46.8052L43.2005 46.5018L43.1973 46.2196L43.1958 45.9593L43.1953 45.7212L43.1951 45.505L43.1947 45.3101L43.1936 45.1359L43.1913 44.9816L43.1875 44.8463L43.1818 44.729L43.1739 44.6291L43.1634 44.5456L43.15 44.478L43.1333 44.4256L43.1131 44.3879L43.0889 44.3646L43.0604 44.3553L43.0272 44.3601L42.9887 44.3787L42.9445 44.4114L42.894 44.4583L42.8367 44.5198L42.7717 44.5961L42.6984 44.6877L42.6161 44.7951L42.5239 44.9188L42.421 45.0592L42.3066 45.2167L42.1798 45.3917L42.04 45.5842L41.8864 45.794L41.7186 46.0206L41.5364 46.2629L41.34 46.5194L41.1298 46.7878L40.907 47.0654L40.673 47.3482L40.4303 47.6317L40.1818 47.9107L39.9312 48.179L39.6828 48.4302L39.4415 48.6574L39.2127 48.8536L39.0017 49.0127L38.8139 49.1287L38.6543 49.1971L38.5269 49.2149L38.4352 49.1805L38.3811 49.0944L38.3653 48.9587L38.3874 48.7772L38.4453 48.5552L38.5362 48.2989L38.6561 48.0152L38.8006 47.7115L38.9647 47.3947L39.1435 47.0716L39.3321 46.7483L39.5262 46.43L39.7216 46.1209L39.9148 45.8247L40.1028 45.5437L40.2835 45.2799L40.4548 45.0342L40.6154 44.8072L40.7644 44.5989L40.9012 44.409L41.0254 44.2369L41.1369 44.0818L41.2358 43.9429L41.3222 43.8192L41.3962 43.7098L41.4582 43.6138L41.5083 43.5303L41.5466 43.4585L41.5734 43.3976L41.5886 43.3471L41.5924 43.3062L41.5845 43.2746L41.5649 43.2518L41.5332 43.2373L41.489 43.2311L41.4319 43.2328L41.3613 43.2422L41.2765 43.2593L41.1767 43.2839L41.0611 43.316L40.9288 43.3555L40.7789 43.4024L40.6103 43.4564L40.4222 43.5175L40.2138 43.5853L39.9845 43.6594L39.7339 43.7394L39.4621 43.8243L39.1696 43.9134L38.8574 44.0053L38.5275 44.0985L38.1826 44.1911L37.8262 44.2812L37.4632 44.3662L37.0993 44.4437L36.741 44.5108L36.3958 44.5649L36.0719 44.6034L35.7775 44.6239L35.5207 44.6245L35.309 44.6038L35.1488 44.5612L35.0452 44.4967L35.0012 44.4113L35.018 44.3066L35.0946 44.1848L35.2278 44.0489L35.4129 43.9018L35.6435 43.7471L35.9124 43.5879L36.2114 43.4274L36.5327 43.2685L36.8682 43.1136L37.2107 42.9645L37.5535 42.8229L37.8911 42.6898L38.2188 42.5657L38.5328 42.4511L38.8303 42.3459L39.1094 42.2498L39.3688 42.1625L39.6077 42.0833L39.826 42.0116L40.0238 41.9469L40.2014 41.8883L40.3594 41.8352L40.4985 41.7869L40.6194 41.7428L40.7228 41.7023L40.8093 41.6647L40.8797 41.6297L40.9343 41.5965L40.9737 41.5649L40.9981 41.5342L41.0078 41.504L41.0028 41.4739L40.9831 41.4434L40.9485 41.4121L40.8988 41.3795L40.8335 41.3451L40.7521 41.3084L40.6542 41.2689L40.5389 41.226L40.4057 41.1791L40.2538 41.1276L40.0825 41.0708L39.8912 41.0081L39.6795 40.9387L39.4471 40.862L39.1942 40.7773L38.9213 40.684L38.6294 40.5818L38.3204 40.4702L37.9968 40.3491L37.6619 40.2188L37.3201 40.0798L36.9769 39.933L36.6384 39.7797L36.3117 39.6218L36.0047 39.4616L35.7254 39.3017L35.4817 39.1452L35.2814 38.9953L35.1311 38.8555L35.036 38.7288L35 38.6184L35.0246 38.5266L35.1095 38.4554L35.2521 38.4058L35.448 38.3781L35.6912 38.3721L35.9745 38.3864L36.29 38.4194L36.6292 38.4688L36.9842 38.5321L37.3471 38.6065L37.7111 38.6895L38.0701 38.7782L38.4191 38.8702L38.7541 38.9635L39.0722 39.0559L39.3711 39.146L39.6496 39.2324L39.907 39.3141L40.1431 39.3902L40.3581 39.46L40.5525 39.5233L40.7272 39.5796L40.883 39.6287L41.0209 39.6706L41.1417 39.705L41.2464 39.7321L41.3359 39.7515L41.4109 39.7634L41.4722 39.7676L41.5205 39.7639L41.5561 39.7521L41.5796 39.732L41.5911 39.7032L41.5911 39.6653L41.5795 39.6179L41.5564 39.5604L41.5217 39.4922L41.4754 39.4125L41.4173 39.3206L41.3471 39.2155L41.2647 39.0965L41.1698 38.9625L41.0623 38.8127L40.9421 38.6461L40.8093 38.4619L40.6642 38.2595L40.5071 38.0385L40.3391 37.7987L40.1613 37.5406L39.9753 37.2649L39.7835 36.9733L39.5884 36.668L39.3936 36.3522L39.2027 36.03L39.0203 35.7062L38.851 35.3867L38.6997 35.078L38.5715 34.7872L38.4709 34.5214L38.4021 34.2877L38.3683 34.0927L38.3719 33.9419L38.4138 33.8397L38.4937 33.7888L38.61 33.79L38.7598 33.8426L38.9391 33.9439L39.1433 34.0897L39.367 34.2748L39.6049 34.4929L39.8516 34.7371L40.102 35.0007L40.3516 35.277L40.5965 35.5597L40.8336 35.8433L41.0602 36.1229L41.2745 36.3947L41.4754 36.6553L41.6621 36.9023L41.8345 37.134L41.9926 37.3492L42.1367 37.5472L42.2676 37.7278L42.3859 37.8909L42.4924 38.0367L42.5879 38.1657L42.6732 38.2782L42.7493 38.3748L42.8168 38.4559L42.8765 38.522L42.9292 38.5736L42.9753 38.6108L43.0155 38.6339L43.0504 38.643L43.0803 38.6383L43.1058 38.6195L43.1273 38.5864L43.145 38.5387L43.1594 38.476L43.1708 38.3976L43.1796 38.303L43.1859 38.1914L43.1903 38.0619L43.193 37.9137L43.1944 37.746L43.195 37.5578L43.1952 37.3484L43.1956 37.1173L43.1967 36.8641L43.1993 36.5888L43.204 36.2921L43.2117 35.9749L43.2232 35.6391L43.2395 35.2874L43.2613 34.9235L43.2895 34.552L43.3249 34.1787L43.368 33.8104L43.4193 33.4546L43.4789 33.1197L43.5467 32.8142L43.622 32.5467L43.7041 32.3253L43.7917 32.157L43.8834 32.0473L43.9773 32L44.0718 32.0168L44.1647 32.097L44.2545 32.2379L44.3394 32.4347L44.4181 32.6811L44.4895 32.9695L44.5531 33.2914L44.6083 33.6383L44.6554 34.0017L44.6944 34.3735L44.7259 34.7466L44.7507 35.1148L44.7695 35.4729L44.7832 35.8166L44.7926 36.143L44.7986 36.4497L44.8021 36.7353L44.8039 36.9991L44.8045 37.2407L44.8048 37.4604L44.8051 37.6586L44.806 37.8361L44.8081 37.9935L44.8116 38.1318L44.817 38.2518L44.8245 38.3545L44.8346 38.4405L44.8475 38.5106L44.8637 38.5654L44.8833 38.6054L44.9068 38.631L44.9346 38.6425L44.967 38.64L45.0046 38.6235L45.0479 38.5931L45.0973 38.5485L45.1536 38.4894L45.2173 38.4155L45.2892 38.3263L45.37 38.2215L45.4605 38.1004L45.5617 37.9627L45.6742 37.8079L45.799 37.6357L45.9367 37.446L46.0881 37.2389L46.2536 37.015L46.4334 36.7751L46.6276 36.5207L46.8356 36.254L47.0566 35.9777L47.2889 35.6954L47.5304 35.4116L47.7782 35.1316L48.0288 34.8611L48.2779 34.6067L48.5206 34.3753L48.7518 34.1736L48.966 34.0083L49.1578 33.8851L49.3222 33.8088L49.4549 33.7828L49.5525 33.8089L49.6127 33.8868L49.6346 34.0149L49.6184 34.1894L49.566 34.4053L49.4802 34.6566L49.3646 34.9364L49.2237 35.2375L49.0624 35.5526L48.8856 35.8751L48.6982 36.1988L48.5048 36.5182L48.3093 36.829L48.1156 37.1275L47.9265 37.411L47.7446 37.6777L47.5717 37.9263L47.4093 38.1563L47.2584 38.3675L47.1196 38.5603L46.9934 38.7353L46.8798 38.893L46.7789 39.0344L46.6906 39.1605L46.6146 39.2721L46.5507 39.3701L46.4988 39.4556L46.4586 39.5292L46.43 39.5917L46.4129 39.6439L46.4073 39.6863L46.4133 39.7193L46.431 39.7435L46.4608 39.7593L46.503 39.7668L46.558 39.7664L46.6264 39.7582L46.7089 39.7423L46.8062 39.7189L46.9192 39.688L47.0488 39.6496L47.1959 39.6039L47.3614 39.551L47.5463 39.4911L47.7515 39.4243L47.9774 39.3512L48.2246 39.2721L48.493 39.1879L48.7823 39.0994L49.0915 39.0079L49.4187 38.9148L49.7615 38.8219L50.1163 38.7313L50.4786 38.6453L50.8428 38.5664L51.2025 38.4975L51.5502 38.4411L51.8781 38.3999L52.1778 38.3764L52.4411 38.3726L52.6605 38.3898L52.8292 38.4289L52.9421 38.4899L52.9957 38.5721L52.9885 38.6739L52.9214 38.7931L52.7969 38.927L52.6197 39.0725L52.3958 39.2263L52.1325 39.385L51.8377 39.5454L51.5195 39.7047L51.1857 39.8605L50.8439 40.0106L50.5007 40.1535L50.1619 40.288L49.8324 40.4135L49.516 40.5296L49.2157 40.6363L48.9336 40.7338L48.671 40.8225L48.4288 40.903L48.2072 40.9758L48.0062 41.0416L47.8254 41.1012L47.6643 41.1551L47.5223 41.2041L47.3985 41.2488L47.2924 41.2899L47.2032 41.3278L47.1303 41.3633L47.0732 41.3967L47.0314 41.4286L47.0046 41.4594L46.9926 41.4896L46.9919 41.4992Z" fill="#4F3AFA"/>
<g id="Vector 183" filter="url(#filter0_bdi_1542_234)">
<path d="M35.6146 48.8761C38.5501 50.7778 37.694 58.2017 36.8989 61.6759C38.1832 63.3216 41.1187 58.2017 41.1187 57.4703C41.1187 56.8851 42.036 55.2151 42.036 53.6303C42.9167 54.508 44.4823 53.2646 45.155 52.5332C52.7873 55.4589 56.6524 48.1447 57.6309 44.1219C63.2083 42.0739 63.8688 37.4173 63.5019 35.3449C64.6761 30.225 63.5019 28.4574 62.768 28.2136C63.3551 23.5325 60.444 21.387 58.9151 20.8994C58.1813 13.8778 53.1053 11.5129 50.6591 11.2082C48.751 6.38081 42.403 6.27109 39.4675 6.81964C35.211 4.04026 31.2114 5.05205 29.7436 5.90537C24.0194 4.14997 19.1636 7.12441 17.4513 8.83105C13.6351 8.53849 10.4794 12.2443 9.37863 14.1338C3.80119 14.8652 3.62995 20.4118 4.24151 23.0937C4.53506 25.8731 6.44315 28.6403 7.36049 29.6764C6.77339 32.3095 11.3968 34.5525 13.7819 35.3449C14.9561 42.8054 23.5669 43.8172 27.7255 43.3905C29.0098 43.2686 31.5783 43.4636 31.5783 45.219C31.5783 47.4133 31.9453 46.499 35.6146 48.8761Z" fill="url(#paint0_linear_1542_234)" fill-opacity="0.7" shape-rendering="crispEdges"/>
</g>
</g>
<defs>
<filter id="filter0_bdi_1542_234" x="-7.45324" y="-6.45324" width="82.9065" height="79.9065" filterUnits="userSpaceOnUse" color-interpolation-filters="sRGB">
<feFlood flood-opacity="0" result="BackgroundImageFix"/>
<feGaussianBlur in="BackgroundImageFix" stdDeviation="2.86331"/>
<feComposite in2="SourceAlpha" operator="in" result="effect1_backgroundBlur_1542_234"/>
<feColorMatrix in="SourceAlpha" type="matrix" values="0 0 0 0 0 0 0 0 0 0 0 0 0 0 0 0 0 0 127 0" result="hardAlpha"/>
<feOffset/>
<feGaussianBlur stdDeviation="5.72662"/>
<feComposite in2="hardAlpha" operator="out"/>
<feColorMatrix type="matrix" values="0 0 0 0 0.231373 0 0 0 0 0.407843 0 0 0 0 1 0 0 0 0.1 0"/>
<feBlend mode="normal" in2="effect1_backgroundBlur_1542_234" result="effect2_dropShadow_1542_234"/>
<feBlend mode="normal" in="SourceGraphic" in2="effect2_dropShadow_1542_234" result="shape"/>
<feColorMatrix in="SourceAlpha" type="matrix" values="0 0 0 0 0 0 0 0 0 0 0 0 0 0 0 0 0 0 127 0" result="hardAlpha"/>
<feOffset/>
<feGaussianBlur stdDeviation="4.29497"/>
<feComposite in2="hardAlpha" operator="arithmetic" k2="-1" k3="1"/>
<feColorMatrix type="matrix" values="0 0 0 0 0.231373 0 0 0 0 0.407843 0 0 0 0 1 0 0 0 0.38 0"/>
<feBlend mode="normal" in2="shape" result="effect3_innerShadow_1542_234"/>
</filter>
<linearGradient id="paint0_linear_1542_234" x1="10.51" y1="-10.8544" x2="21.8477" y2="60.8183" gradientUnits="userSpaceOnUse">
<stop offset="0.215" stop-color="#71EFD1" stop-opacity="0.1"/>
<stop offset="1" stop-color="#A7A5FB"/>
</linearGradient>
<clipPath id="clip0_1542_234">
<rect width="68" height="68" fill="white"/>
</clipPath>
</defs>
</svg>
