<svg width="68" height="68" viewBox="0 0 68 68" fill="none" xmlns="http://www.w3.org/2000/svg">
<g id="Component 3" clip-path="url(#clip0_1542_1406)">
<path id="Rectangle 714" d="M10.2944 16.2608C12.4754 16.2767 13.2056 14.4115 14.4105 15.5829C15.9765 17.1055 15.8133 18.3425 15.8133 18.3425C15.9618 22.806 15.7186 21.8787 10.3823 25.3805C4.90551 21.8023 4.49681 22.3807 4.80214 17.8771C4.80214 17.8771 4.61912 17.0219 6.15489 15.5218C7.3363 14.3678 8.11349 16.2448 10.2944 16.2608Z" fill="#5039FA"/>
<path id="Rectangle 715" d="M58.2944 16.2608C60.4754 16.2767 61.2056 14.4115 62.4105 15.5829C63.9765 17.1055 63.8133 18.3425 63.8133 18.3425C63.9618 22.806 63.7186 21.8787 58.3823 25.3805C52.9055 21.8023 52.4968 22.3807 52.8021 17.8771C52.8021 17.8771 52.6191 17.0219 54.1549 15.5218C55.3363 14.3678 56.1135 16.2448 58.2944 16.2608Z" fill="#5039FA"/>
<path id="Rectangle 713" d="M10.3953 17.9188C12.2169 17.9192 12.8418 16.3569 13.8387 17.3282C15.1345 18.5906 14.9882 19.6248 14.9882 19.6248C15.0763 23.352 14.8806 22.5789 10.3953 25.5355C5.84964 22.5794 5.50361 23.065 5.79493 19.3015C5.79493 19.3015 5.64895 18.5884 6.94379 17.3263C7.93985 16.3554 8.57387 17.9185 10.3953 17.9188Z" fill="#5039FA"/>
<path id="Rectangle 716" d="M58.3953 17.9188C60.2169 17.9192 60.8418 16.3569 61.8387 17.3282C63.1345 18.5906 62.9882 19.6248 62.9882 19.6248C63.0763 23.352 62.8806 22.5789 58.3953 25.5355C53.8496 22.5794 53.5036 23.065 53.7949 19.3015C53.7949 19.3015 53.649 18.5884 54.9438 17.3263C55.9398 16.3554 56.5739 17.9185 58.3953 17.9188Z" fill="#5039FA"/>
<g id="Union" filter="url(#filter0_bdi_1542_1406)">
<path fill-rule="evenodd" clip-rule="evenodd" d="M10.348 27.0232C14.9585 27.0232 18.696 23.2856 18.696 18.6752C18.696 18.6253 18.6956 18.5755 18.6947 18.5258C18.6605 16.5754 20.5581 13.8901 22.3305 14.7047C22.6457 14.8496 22.7279 15.2552 22.5137 15.5281C19.9934 18.7402 19.767 20.8069 19.7726 21.4797C19.7739 21.6403 19.7826 21.8033 19.7722 21.9635C18.9771 34.1729 19.81 41.624 30.0481 50.7406C30.4825 51.1275 30.7412 51.6824 30.7412 52.264V57.3207C30.7412 58.4252 31.6366 59.3207 32.7412 59.3207H35.5985C36.703 59.3207 37.5985 58.4252 37.5985 57.3207V52.6286C37.5985 52.0423 37.8615 51.483 38.3025 51.0966C48.7077 41.9783 49.2209 35.3453 48.9763 23.0574C48.9744 22.9632 48.9792 22.868 48.9839 22.7739C49.0154 22.1376 48.9859 19.4033 46.5414 15.9609C46.3587 15.7037 46.4163 15.3421 46.6853 15.1773C48.3245 14.1728 50.2982 16.7551 50.2982 18.6775C50.2982 23.2893 54.0368 27.0279 58.6486 27.0279C63.2604 27.0279 66.999 23.2893 66.999 18.6775C66.999 14.0657 63.2604 10.3271 58.6486 10.3271C58.2545 10.3271 57.8667 10.3545 57.487 10.4073C57.3391 10.4279 57.1896 10.4362 57.0403 10.4302C56.9497 10.4266 56.8587 10.4239 56.7676 10.4222C55.472 10.3972 53.9405 10.5535 52.3541 10.8893C50.2864 11.3271 48.0513 12.0863 46.0854 13.2087C45.3319 13.6389 44.3192 13.4442 43.4885 13.6949C42.6135 13.9589 41.7531 15.0073 40.7698 16.2055L40.7698 16.2055C39.1667 18.1588 37.237 20.5101 34.3852 20.5094C31.534 20.5088 29.6011 18.1566 27.995 16.2022L27.995 16.2022C27.0331 15.0317 26.1885 14.0039 25.3341 13.7092C24.9058 13.5615 24.4318 13.5167 24.0294 13.3086C21.7447 12.1271 19.1122 11.3345 16.6824 10.8844C14.885 10.5514 13.155 10.3976 11.6982 10.4221C11.6469 10.4231 11.5956 10.4196 11.5449 10.4123C11.154 10.3562 10.7544 10.3271 10.348 10.3271C5.73753 10.3271 2 14.0647 2 18.6752C2 23.2856 5.73753 27.0232 10.348 27.0232Z" fill="url(#paint0_linear_1542_1406)" fill-opacity="0.7" shape-rendering="crispEdges"/>
</g>
</g>
<defs>
<filter id="filter0_bdi_1542_1406" x="-9.45324" y="-1.12609" width="87.9055" height="71.8999" filterUnits="userSpaceOnUse" color-interpolation-filters="sRGB">
<feFlood flood-opacity="0" result="BackgroundImageFix"/>
<feGaussianBlur in="BackgroundImageFix" stdDeviation="2.86331"/>
<feComposite in2="SourceAlpha" operator="in" result="effect1_backgroundBlur_1542_1406"/>
<feColorMatrix in="SourceAlpha" type="matrix" values="0 0 0 0 0 0 0 0 0 0 0 0 0 0 0 0 0 0 127 0" result="hardAlpha"/>
<feOffset/>
<feGaussianBlur stdDeviation="5.72662"/>
<feComposite in2="hardAlpha" operator="out"/>
<feColorMatrix type="matrix" values="0 0 0 0 0.231373 0 0 0 0 0.407843 0 0 0 0 1 0 0 0 0.1 0"/>
<feBlend mode="normal" in2="effect1_backgroundBlur_1542_1406" result="effect2_dropShadow_1542_1406"/>
<feBlend mode="normal" in="SourceGraphic" in2="effect2_dropShadow_1542_1406" result="shape"/>
<feColorMatrix in="SourceAlpha" type="matrix" values="0 0 0 0 0 0 0 0 0 0 0 0 0 0 0 0 0 0 127 0" result="hardAlpha"/>
<feOffset/>
<feGaussianBlur stdDeviation="4.29497"/>
<feComposite in2="hardAlpha" operator="arithmetic" k2="-1" k3="1"/>
<feColorMatrix type="matrix" values="0 0 0 0 0.231373 0 0 0 0 0.407843 0 0 0 0 1 0 0 0 0.38 0"/>
<feBlend mode="normal" in2="shape" result="effect3_innerShadow_1542_1406"/>
</filter>
<linearGradient id="paint0_linear_1542_1406" x1="7.9139" y1="-4.89755" x2="17.7026" y2="64.2654" gradientUnits="userSpaceOnUse">
<stop offset="0.215" stop-color="#71EFD1" stop-opacity="0.1"/>
<stop offset="1" stop-color="#A7A5FB"/>
</linearGradient>
<clipPath id="clip0_1542_1406">
<rect width="68" height="68" fill="white"/>
</clipPath>
</defs>
</svg>
