<svg width="24" height="24" viewBox="0 0 24 24" fill="none" xmlns="http://www.w3.org/2000/svg">
<mask id="mask0_672_5721" style="mask-type:alpha" maskUnits="userSpaceOnUse" x="0" y="0" width="24" height="24">
<rect width="24" height="24" fill="#D9D9D9"/>
</mask>
<g mask="url(#mask0_672_5721)">
<path d="M1.5 22L22.5 1" stroke="white" stroke-width="1.5" stroke-linecap="round"/>
<path fill-rule="evenodd" clip-rule="evenodd" d="M17.0705 4.3082C16.7552 4.10273 16.3984 4 16 4H4C3.45 4 2.97917 4.19583 2.5875 4.5875C2.19583 4.97917 2 5.45 2 6V18C2 18.3984 2.10273 18.7552 2.3082 19.0705L6.00121 15.3775C6.02474 14.6776 6.391 14.1101 7.1 13.675C7.40951 13.4851 7.76058 13.3352 8.15322 13.2255L9.45085 11.9278C9.12967 11.8387 8.84189 11.6669 8.5875 11.4125C8.19583 11.0208 8 10.55 8 10C8 9.45 8.19583 8.97917 8.5875 8.5875C8.97917 8.19583 9.45 8 10 8C10.55 8 11.0208 8.19583 11.4125 8.5875C11.6669 8.84189 11.8387 9.12967 11.9278 9.45085L17.0705 4.3082ZM9.62132 16H14V15.45C14 14.7167 13.6333 14.125 12.9 13.675C12.7034 13.5543 12.49 13.4499 12.2598 13.3615L18 7.62132V10.5L22 6.5V17.5L18 13.5V18C18 18.55 17.8042 19.0208 17.4125 19.4125C17.0208 19.8042 16.55 20 16 20H5.62132L9.62132 16Z" fill="white"/>
</g>
</svg>
