<svg width="22" height="22" viewBox="0 0 22 22" fill="none" xmlns="http://www.w3.org/2000/svg">
<mask id="mask0_672_5754" style="mask-type:alpha" maskUnits="userSpaceOnUse" x="0" y="0" width="22" height="22">
<rect width="22" height="22" fill="#D9D9D9"/>
</mask>
<g mask="url(#mask0_672_5754)">
<path d="M4.83333 18.5C4.52966 18.5 4.28837 18.4006 4.06887 18.1811C3.84937 17.9616 3.75 17.7203 3.75 17.4167V4.58333C3.75 4.27966 3.84937 4.03837 4.06887 3.81887C4.28837 3.59937 4.52966 3.5 4.83333 3.5H17.6667C17.9703 3.5 18.2116 3.59937 18.4311 3.81887C18.6506 4.03837 18.75 4.27966 18.75 4.58333V17.4167C18.75 17.7203 18.6506 17.9616 18.4311 18.1811C18.2116 18.4006 17.9703 18.5 17.6667 18.5H4.83333Z" fill="white" stroke="#BFCAD1" stroke-width="1.5"/>
</g>
</svg>
