<svg width="22" height="22" viewBox="0 0 22 22" fill="none" xmlns="http://www.w3.org/2000/svg">
<g id="check_box_outline_blank">
<mask id="mask0_672_5746" style="mask-type:alpha" maskUnits="userSpaceOnUse" x="0" y="0" width="22" height="22">
<rect id="Bounding box" width="22" height="22" fill="#D9D9D9"/>
</mask>
<g mask="url(#mask0_672_5746)">
<path id="check_box" d="M9.71667 14.85L16.1792 8.3875L14.8958 7.10417L9.71667 12.2833L7.10417 9.67083L5.82083 10.9542L9.71667 14.85ZM4.58333 19.25C4.07917 19.25 3.64757 19.0705 3.28854 18.7115C2.92951 18.3524 2.75 17.9208 2.75 17.4167V4.58333C2.75 4.07917 2.92951 3.64757 3.28854 3.28854C3.64757 2.92951 4.07917 2.75 4.58333 2.75H17.4167C17.9208 2.75 18.3524 2.92951 18.7115 3.28854C19.0705 3.64757 19.25 4.07917 19.25 4.58333V17.4167C19.25 17.9208 19.0705 18.3524 18.7115 18.7115C18.3524 19.0705 17.9208 19.25 17.4167 19.25H4.58333Z" fill="#5039FA"/>
</g>
</g>
</svg>
