<svg width="24" height="24" viewBox="0 0 24 24" fill="none" xmlns="http://www.w3.org/2000/svg">
<g id="search_activity">
<mask id="mask0_462_2857" style="mask-type:alpha" maskUnits="userSpaceOnUse" x="0" y="0" width="24" height="24">
<rect id="Bounding box" width="24" height="24" fill="#D9D9D9"/>
</mask>
<g mask="url(#mask0_462_2857)">
<path id="search_activity_2" d="M12.75 11.7057L15.827 14.7827C15.9653 14.9212 16.0329 15.0952 16.0297 15.3047C16.0266 15.5143 15.9558 15.6884 15.8173 15.8269C15.6788 15.9653 15.5042 16.0344 15.2935 16.0344C15.0828 16.0344 14.9093 15.9653 14.773 15.8269L11.5213 12.5652C11.4276 12.4717 11.359 12.3698 11.3155 12.2594C11.2718 12.1491 11.25 12.035 11.25 11.9172V7.99993C11.25 7.78743 11.3219 7.60935 11.4658 7.46568C11.6096 7.32185 11.7878 7.24993 12.0003 7.24993C12.2129 7.24993 12.391 7.32185 12.5345 7.46568C12.6782 7.60935 12.75 7.78743 12.75 7.99993V11.7057ZM15.1053 5.04793C14.8198 5.04793 14.5786 4.94935 14.3818 4.75218C14.1849 4.55501 14.0865 4.31368 14.0865 4.02818C14.0865 3.74268 14.1851 3.50151 14.3822 3.30468C14.5794 3.10801 14.8208 3.00968 15.1062 3.00968C15.3917 3.00968 15.6329 3.10826 15.8298 3.30543C16.0266 3.50243 16.125 3.74376 16.125 4.02943C16.125 4.31493 16.0264 4.5561 15.8292 4.75293C15.6321 4.9496 15.3907 5.04793 15.1053 5.04793ZM15.0763 20.9902C14.7908 20.9902 14.5497 20.8916 14.353 20.6944C14.1562 20.4974 14.0577 20.2561 14.0577 19.9704C14.0577 19.6849 14.1563 19.4438 14.3535 19.2469C14.5507 19.0503 14.792 18.9519 15.0775 18.9519C15.363 18.9519 15.6042 19.0505 15.801 19.2477C15.9977 19.4448 16.096 19.6862 16.096 19.9717C16.096 20.2572 15.9975 20.4983 15.8005 20.6952C15.6033 20.8918 15.3619 20.9902 15.0763 20.9902ZM19.0763 8.43268C18.7908 8.43268 18.5497 8.3341 18.353 8.13693C18.1562 7.93976 18.0577 7.69843 18.0577 7.41293C18.0577 7.12743 18.1563 6.88626 18.3535 6.68943C18.5507 6.4926 18.792 6.39418 19.0775 6.39418C19.363 6.39418 19.6042 6.49276 19.801 6.68993C19.9977 6.8871 20.096 7.12843 20.096 7.41393C20.096 7.69943 19.9975 7.9406 19.8005 8.13743C19.6033 8.33426 19.3619 8.43268 19.0763 8.43268ZM19.0475 17.6344C18.762 17.6344 18.5208 17.5358 18.324 17.3387C18.1272 17.1417 18.0288 16.9003 18.0288 16.6147C18.0288 16.3292 18.1273 16.088 18.3245 15.8912C18.5217 15.6945 18.763 15.5962 19.0485 15.5962C19.3342 15.5962 19.5753 15.6948 19.772 15.8919C19.9688 16.0889 20.0673 16.3303 20.0673 16.6159C20.0673 16.9014 19.9687 17.1426 19.7715 17.3394C19.5743 17.5361 19.333 17.6344 19.0475 17.6344ZM20.4803 13.0192C20.1948 13.0192 19.9536 12.9206 19.7568 12.7234C19.5599 12.5263 19.4615 12.2849 19.4615 11.9994C19.4615 11.7139 19.5601 11.4728 19.7572 11.2759C19.9544 11.0791 20.1958 10.9807 20.4813 10.9807C20.7668 10.9807 21.0079 11.0793 21.2048 11.2764C21.4016 11.4736 21.5 11.7149 21.5 12.0004C21.5 12.2859 21.4014 12.5271 21.2043 12.7239C21.0071 12.9208 20.7658 13.0192 20.4803 13.0192ZM2.5 11.9984C2.5 9.49176 3.34358 7.33685 5.03075 5.53368C6.71792 3.73051 8.7865 2.72951 11.2365 2.53068C11.4455 2.51018 11.625 2.5721 11.775 2.71643C11.925 2.8606 12 3.03935 12 3.25268C12 3.45335 11.9302 3.6281 11.7905 3.77693C11.6507 3.9256 11.4795 4.01018 11.277 4.03068C9.2155 4.21268 7.48725 5.06176 6.09225 6.57793C4.69742 8.09393 4 9.90118 4 11.9997C4 14.1152 4.69742 15.9268 6.09225 17.4344C7.48725 18.9423 9.2155 19.7872 11.277 19.9692C11.4795 19.9897 11.6507 20.0749 11.7905 20.2249C11.9302 20.3751 12 20.5502 12 20.7502C12 20.9628 11.925 21.1409 11.775 21.2844C11.625 21.4281 11.4455 21.4897 11.2365 21.4692C8.77633 21.2703 6.70517 20.2688 5.023 18.4647C3.341 16.6605 2.5 14.5051 2.5 11.9984Z" fill="#1C1B1F"/>
</g>
</g>
</svg>
