<svg width="20" height="20" viewBox="0 0 20 20" fill="none" xmlns="http://www.w3.org/2000/svg">
<g id="move_item">
<mask id="mask0_681_3499" style="mask-type:alpha" maskUnits="userSpaceOnUse" x="0" y="0" width="20" height="20">
<rect id="Bounding box" width="20" height="20" fill="#D9D9D9"/>
</mask>
<g mask="url(#mask0_681_3499)">
<path id="move_item_2" d="M16.625 10.75H7.75C7.5375 10.75 7.35938 10.6785 7.21563 10.5356C7.07188 10.3927 7 10.2156 7 10.0044C7 9.79313 7.07188 9.61458 7.21563 9.46875C7.35938 9.32292 7.5375 9.25 7.75 9.25H16.625L15.9629 8.58792C15.8071 8.43208 15.7292 8.25347 15.7292 8.05208C15.7292 7.85069 15.8022 7.67361 15.9483 7.52083C16.1078 7.36806 16.2882 7.29167 16.4896 7.29167C16.691 7.29167 16.8678 7.36778 17.02 7.52L18.98 9.48C19.1322 9.63222 19.2083 9.80681 19.2083 10.0037C19.2083 10.2007 19.1319 10.3731 18.9792 10.5208L17.02 12.48C16.8678 12.6322 16.6944 12.7049 16.5 12.6979C16.3056 12.691 16.1286 12.6111 15.9692 12.4583C15.8231 12.3056 15.75 12.1285 15.75 11.9271C15.75 11.7257 15.8261 11.5489 15.9783 11.3967L16.625 10.75ZM12.5 7V4.5H4.5V15.5H12.5V13C12.5 12.7875 12.5715 12.6094 12.7144 12.4656C12.8573 12.3219 13.0344 12.25 13.2456 12.25C13.4569 12.25 13.6354 12.3219 13.7812 12.4656C13.9271 12.6094 14 12.7875 14 13V15.5C14 15.9125 13.8531 16.2656 13.5594 16.5594C13.2656 16.8531 12.9125 17 12.5 17H4.5C4.0875 17 3.73437 16.8531 3.44062 16.5594C3.14687 16.2656 3 15.9125 3 15.5V4.5C3 4.0875 3.14687 3.73438 3.44062 3.44063C3.73437 3.14688 4.0875 3 4.5 3H12.5C12.9125 3 13.2656 3.14688 13.5594 3.44063C13.8531 3.73438 14 4.0875 14 4.5V7C14 7.2125 13.9285 7.39063 13.7856 7.53438C13.6427 7.67813 13.4656 7.75 13.2544 7.75C13.0431 7.75 12.8646 7.67813 12.7188 7.53438C12.5729 7.39063 12.5 7.2125 12.5 7Z" fill="#4B535D"/>
</g>
</g>
</svg>
