<svg width="21" height="20" viewBox="0 0 21 20" fill="none" xmlns="http://www.w3.org/2000/svg">
<g id="glucose">
<mask id="mask0_1437_980" style="mask-type:alpha" maskUnits="userSpaceOnUse" x="0" y="0" width="21" height="20">
<rect id="Bounding box" x="0.5" width="20" height="20" fill="#D9D9D9"/>
</mask>
<g mask="url(#mask0_1437_980)">
<path id="glucose_2" d="M12.0417 18.0003C11.7667 18.0003 11.5035 17.9448 11.2521 17.8337C11.0007 17.7225 10.7778 17.5698 10.5833 17.3753L5.95833 12.5212C5.80556 12.3545 5.73896 12.1644 5.75854 11.9507C5.77813 11.7373 5.87944 11.5594 6.0625 11.417L6.66667 10.9587C6.91667 10.7642 7.19444 10.6635 7.5 10.6566C7.80556 10.6496 8.09028 10.7295 8.35417 10.8962L9.5 11.6253V3.75033C9.5 3.53783 9.57146 3.3597 9.71438 3.21595C9.85729 3.0722 10.0344 3.00033 10.2456 3.00033C10.4569 3.00033 10.6354 3.0722 10.7812 3.21595C10.9271 3.3597 11 3.53783 11 3.75033V11.0003H12.1667V6.75033C12.1667 6.53783 12.2381 6.3597 12.381 6.21595C12.524 6.0722 12.701 6.00033 12.9123 6.00033C13.1235 6.00033 13.3021 6.0722 13.4479 6.21595C13.5938 6.3597 13.6667 6.53783 13.6667 6.75033V11.0003H14.8333V7.75033C14.8333 7.53783 14.9048 7.3597 15.0477 7.21595C15.1906 7.0722 15.3677 7.00033 15.579 7.00033C15.7902 7.00033 15.9688 7.0722 16.1146 7.21595C16.2604 7.3597 16.3333 7.53783 16.3333 7.75033V11.0003H17.5V8.75033C17.5 8.53783 17.5715 8.3597 17.7144 8.21595C17.8573 8.0722 18.0344 8.00033 18.2456 8.00033C18.4569 8.00033 18.6354 8.0722 18.7812 8.21595C18.9271 8.3597 19 8.53783 19 8.75033V15.0003C19 15.8337 18.7083 16.542 18.125 17.1253C17.5417 17.7087 16.8333 18.0003 16 18.0003H12.0417ZM4.25917 7.97949C3.48917 7.97949 2.83681 7.71456 2.30208 7.1847C1.76736 6.65498 1.5 6.01727 1.5 5.27158C1.5 4.82685 1.58681 4.44824 1.76042 4.13574C1.93403 3.82324 2.35549 3.27956 3.02479 2.5047L3.6875 1.75033C3.83681 1.56977 4.02347 1.47949 4.2475 1.47949C4.47139 1.47949 4.66111 1.57109 4.81667 1.75428L5.45833 2.50033C6.15278 3.29199 6.58333 3.8406 6.75 4.14616C6.91667 4.45171 7 4.82345 7 5.26137C7 6.0179 6.73243 6.66005 6.19729 7.18783C5.66215 7.7156 5.01611 7.97949 4.25917 7.97949Z" fill="#191919"/>
</g>
</g>
</svg>
