<svg width="20" height="20" viewBox="0 0 20 20" fill="none" xmlns="http://www.w3.org/2000/svg">
<g id="glucose">
<mask id="mask0_977_1474" style="mask-type:alpha" maskUnits="userSpaceOnUse" x="0" y="0" width="20" height="20">
<rect id="Bounding box" width="20" height="20" fill="#D9D9D9"/>
</mask>
<g mask="url(#mask0_977_1474)">
<path id="glucose_2" d="M11.5417 18.0003C11.2667 18.0003 11.0035 17.9448 10.7521 17.8337C10.5007 17.7225 10.2778 17.5698 10.0833 17.3753L5.45833 12.5212C5.30556 12.3545 5.23896 12.1644 5.25854 11.9507C5.27813 11.7373 5.37944 11.5594 5.5625 11.417L6.16667 10.9587C6.41667 10.7642 6.69444 10.6635 7 10.6566C7.30556 10.6496 7.59028 10.7295 7.85417 10.8962L9 11.6253V3.75033C9 3.53783 9.07146 3.3597 9.21438 3.21595C9.35729 3.0722 9.53438 3.00033 9.74563 3.00033C9.95688 3.00033 10.1354 3.0722 10.2812 3.21595C10.4271 3.3597 10.5 3.53783 10.5 3.75033V11.0003H11.6667V6.75033C11.6667 6.53783 11.7381 6.3597 11.881 6.21595C12.024 6.0722 12.201 6.00033 12.4123 6.00033C12.6235 6.00033 12.8021 6.0722 12.9479 6.21595C13.0938 6.3597 13.1667 6.53783 13.1667 6.75033V11.0003H14.3333V7.75033C14.3333 7.53783 14.4048 7.3597 14.5477 7.21595C14.6906 7.0722 14.8677 7.00033 15.079 7.00033C15.2902 7.00033 15.4688 7.0722 15.6146 7.21595C15.7604 7.3597 15.8333 7.53783 15.8333 7.75033V11.0003H17V8.75033C17 8.53783 17.0715 8.3597 17.2144 8.21595C17.3573 8.0722 17.5344 8.00033 17.7456 8.00033C17.9569 8.00033 18.1354 8.0722 18.2812 8.21595C18.4271 8.3597 18.5 8.53783 18.5 8.75033V15.0003C18.5 15.8337 18.2083 16.542 17.625 17.1253C17.0417 17.7087 16.3333 18.0003 15.5 18.0003H11.5417ZM3.75917 7.97949C2.98917 7.97949 2.33681 7.71456 1.80208 7.1847C1.26736 6.65498 1 6.01727 1 5.27158C1 4.82685 1.08681 4.44824 1.26042 4.13574C1.43403 3.82324 1.85549 3.27956 2.52479 2.5047L3.1875 1.75033C3.33681 1.56977 3.52347 1.47949 3.7475 1.47949C3.97139 1.47949 4.16111 1.57109 4.31667 1.75428L4.95833 2.50033C5.65278 3.29199 6.08333 3.8406 6.25 4.14616C6.41667 4.45171 6.5 4.82345 6.5 5.26137C6.5 6.0179 6.23243 6.66005 5.69729 7.18783C5.16215 7.7156 4.51611 7.97949 3.75917 7.97949Z" fill="white"/>
</g>
</g>
</svg>
