<svg width="21" height="20" viewBox="0 0 21 20" fill="none" xmlns="http://www.w3.org/2000/svg">
<g id="news">
<mask id="mask0_977_1486" style="mask-type:alpha" maskUnits="userSpaceOnUse" x="0" y="0" width="21" height="20">
<rect id="Bounding box" x="0.666504" width="20" height="20" fill="#D9D9D9"/>
</mask>
<g mask="url(#mask0_977_1486)">
<path id="news_2" d="M4.6665 18C4.254 18 3.90088 17.8321 3.60713 17.4964C3.31338 17.1607 3.1665 16.7571 3.1665 16.2857V3.71429C3.1665 3.24286 3.31338 2.83929 3.60713 2.50357C3.90088 2.16786 4.254 2 4.6665 2H12.5415C12.739 2 12.9273 2.03968 13.1063 2.11905C13.2853 2.19841 13.4495 2.32341 13.5988 2.49405L16.7342 6.07738C16.8835 6.24802 16.9929 6.43564 17.0623 6.64024C17.1318 6.84484 17.1665 7.06 17.1665 7.28571V16.2857C17.1665 16.7571 17.0196 17.1607 16.7259 17.4964C16.4321 17.8321 16.079 18 15.6665 18H4.6665ZM12.1665 3.71429V6.85714C12.1665 7.1 12.2384 7.30357 12.3821 7.46786C12.5259 7.63214 12.704 7.71429 12.9165 7.71429H15.6665L12.1665 3.71429ZM13.4165 14.5714C13.629 14.5714 13.8071 14.4898 13.9509 14.3264C14.0946 14.1631 14.1665 13.9607 14.1665 13.7193C14.1665 13.4779 14.0946 13.2738 13.9509 13.1071C13.8071 12.9405 13.629 12.8571 13.4165 12.8571H6.9165C6.704 12.8571 6.52588 12.9388 6.38213 13.1021C6.23838 13.2655 6.1665 13.4679 6.1665 13.7093C6.1665 13.9507 6.23838 14.1548 6.38213 14.3214C6.52588 14.4881 6.704 14.5714 6.9165 14.5714H13.4165ZM9.41088 7.42857C9.62296 7.42857 9.80192 7.34691 9.94775 7.18357C10.0936 7.02024 10.1665 6.81786 10.1665 6.57643C10.1665 6.335 10.0948 6.13095 9.9513 5.96429C9.80782 5.79762 9.63005 5.71429 9.41796 5.71429H7.17213C6.96005 5.71429 6.78109 5.79595 6.63525 5.95929C6.48942 6.12262 6.4165 6.325 6.4165 6.56643C6.4165 6.80786 6.48824 7.01191 6.63171 7.17857C6.77518 7.34524 6.95296 7.42857 7.16505 7.42857H9.41088ZM13.4165 11.4286C13.629 11.4286 13.8071 11.3469 13.9509 11.1836C14.0946 11.0202 14.1665 10.8179 14.1665 10.5764C14.1665 10.335 14.0946 10.131 13.9509 9.96429C13.8071 9.79762 13.629 9.71429 13.4165 9.71429H6.9165C6.704 9.71429 6.52588 9.79595 6.38213 9.95929C6.23838 10.1226 6.1665 10.325 6.1665 10.5664C6.1665 10.8079 6.23838 11.0119 6.38213 11.1786C6.52588 11.3452 6.704 11.4286 6.9165 11.4286H13.4165Z" fill="white"/>
</g>
</g>
</svg>
