<svg width="24" height="24" viewBox="0 0 24 24" fill="none" xmlns="http://www.w3.org/2000/svg">
<mask id="mask0_672_5716" style="mask-type:alpha" maskUnits="userSpaceOnUse" x="0" y="0" width="24" height="24">
<rect width="24" height="24" fill="#D9D9D9"/>
</mask>
<g mask="url(#mask0_672_5716)">
<path fill-rule="evenodd" clip-rule="evenodd" d="M15 6.37868V5C15 4.16667 14.7083 3.45833 14.125 2.875C13.5417 2.29167 12.8333 2 12 2C11.1667 2 10.4583 2.29167 9.875 2.875C9.29167 3.45833 9 4.16667 9 5V11C9 11.4177 9.07327 11.804 9.21982 12.1589L15 6.37868ZM7.73868 13.64C7.24623 12.8631 7 11.9831 7 11H5C5 12.5266 5.4312 13.8883 6.29361 15.0851L7.73868 13.64ZM8.51401 17.1073L10.014 15.6073C10.6212 15.8691 11.2832 16 12 16C13.3833 16 14.5625 15.5125 15.5375 14.5375C16.5125 13.5625 17 12.3833 17 11H19C19 12.75 18.4333 14.2833 17.3 15.6C16.1667 16.9167 14.7333 17.6917 13 17.925V21H11V17.925C10.0883 17.8023 9.25968 17.5297 8.51401 17.1073ZM11.6403 13.9811L15 10.6213V11C15 11.8333 14.7083 12.5417 14.125 13.125C13.5417 13.7083 12.8333 14 12 14C11.8774 14 11.7575 13.9937 11.6403 13.9811Z" fill="white"/>
<path d="M1.5 22L22.5 1" stroke="white" stroke-width="1.5" stroke-linecap="round"/>
</g>
</svg>
