<svg width="21" height="20" viewBox="0 0 21 20" fill="none" xmlns="http://www.w3.org/2000/svg">
<g id="alarm_on">
<mask id="mask0_977_1480" style="mask-type:alpha" maskUnits="userSpaceOnUse" x="0" y="0" width="21" height="20">
<rect id="Bounding box" x="0.333496" width="20" height="20" fill="#D9D9D9"/>
</mask>
<g mask="url(#mask0_977_1480)">
<path id="alarm_on_2" d="M9.47949 11.2917L8.37533 10.1875C8.19727 10.0069 7.98956 9.91667 7.7522 9.91667C7.51484 9.91667 7.30588 10.0049 7.12533 10.1813C6.95866 10.3575 6.87533 10.5669 6.87533 10.8094C6.87533 11.0517 6.95866 11.2611 7.12533 11.4375L8.95866 13.2917C9.11019 13.4444 9.28692 13.5208 9.48887 13.5208C9.69095 13.5208 9.86838 13.4444 10.0212 13.2917L13.5837 9.72917C13.7642 9.55139 13.8545 9.34028 13.8545 9.09583C13.8545 8.85139 13.7653 8.63889 13.587 8.45833C13.4087 8.27778 13.1969 8.1875 12.9516 8.1875C12.7063 8.1875 12.4934 8.27778 12.3128 8.45833L9.47949 11.2917ZM10.3337 18C9.36144 18 8.45081 17.8153 7.60178 17.4458C6.75262 17.0764 6.01373 16.5773 5.38512 15.9485C4.75637 15.3199 4.25727 14.581 3.88783 13.7319C3.51838 12.8828 3.33366 11.9722 3.33366 11C3.33366 10.0278 3.51838 9.11715 3.88783 8.26813C4.25727 7.41896 4.75637 6.68007 5.38512 6.05146C6.01373 5.42271 6.75262 4.92361 7.60178 4.55417C8.45081 4.18472 9.36144 4 10.3337 4C11.3059 4 12.2165 4.18472 13.0655 4.55417C13.9147 4.92361 14.6536 5.42271 15.2822 6.05146C15.911 6.68007 16.41 7.41896 16.7795 8.26813C17.1489 9.11715 17.3337 10.0278 17.3337 11C17.3337 11.9722 17.1489 12.8828 16.7795 13.7319C16.41 14.581 15.911 15.3199 15.2822 15.9485C14.6536 16.5773 13.9147 17.0764 13.0655 17.4458C12.2165 17.8153 11.3059 18 10.3337 18ZM2.27116 6.45833C2.11838 6.30556 2.04199 6.12847 2.04199 5.92708C2.04199 5.72569 2.11838 5.54861 2.27116 5.39583L4.75033 2.91667C4.9031 2.76389 5.08019 2.6875 5.28158 2.6875C5.48296 2.6875 5.66005 2.76389 5.81283 2.91667C5.9656 3.06944 6.04199 3.24653 6.04199 3.44792C6.04199 3.64931 5.9656 3.82639 5.81283 3.97917L3.31283 6.47917C3.16005 6.63194 2.98644 6.70486 2.79199 6.69792C2.59755 6.69097 2.42394 6.61111 2.27116 6.45833ZM18.417 6.45833C18.2642 6.61111 18.0871 6.6875 17.8857 6.6875C17.6844 6.6875 17.5073 6.61111 17.3545 6.45833L14.8753 3.97917C14.7225 3.82639 14.6462 3.64931 14.6462 3.44792C14.6462 3.24653 14.7225 3.06944 14.8753 2.91667C15.0281 2.76389 15.2052 2.6875 15.4066 2.6875C15.608 2.6875 15.785 2.76389 15.9378 2.91667L18.417 5.41667C18.5698 5.56944 18.6462 5.74306 18.6462 5.9375C18.6462 6.13194 18.5698 6.30556 18.417 6.45833Z" fill="white"/>
</g>
</g>
</svg>
