<svg width="40" height="40" viewBox="0 0 40 40" fill="none" xmlns="http://www.w3.org/2000/svg">
<g id="video_camera_front">
<mask id="mask0_1530_7790" style="mask-type:alpha" maskUnits="userSpaceOnUse" x="0" y="0" width="40" height="40">
<rect id="Bounding box" width="40" height="40" fill="#D9D9D9"/>
</mask>
<g mask="url(#mask0_1530_7790)">
<path id="Vector 209" d="M2.5 36.6667L37.5 1.66675" stroke="#D9E0E4" stroke-opacity="0.6" stroke-width="1.5" stroke-linecap="round"/>
<path id="Subtract" fill-rule="evenodd" clip-rule="evenodd" d="M29.2036 7.84187C29.1458 7.77528 29.0849 7.70996 29.0208 7.64591C28.3681 6.99314 27.5833 6.66675 26.6667 6.66675H6.66666C5.74999 6.66675 4.96527 6.99314 4.31249 7.64591C3.65972 8.29869 3.33333 9.08341 3.33333 10.0001V30.0001C3.33333 30.9167 3.65972 31.7015 4.31249 32.3542C4.37654 32.4183 4.44186 32.4792 4.50845 32.537L10.3787 26.6667H10V25.7501C10 24.5279 10.6111 23.5417 11.8333 22.7917C12.7672 22.2187 13.9281 21.8646 15.3161 21.7294L17.067 19.9784C16.9365 19.9929 16.803 20.0001 16.6667 20.0001C15.75 20.0001 14.9653 19.6737 14.3125 19.0209C13.6597 18.3681 13.3333 17.5834 13.3333 16.6667C13.3333 15.7501 13.6597 14.9654 14.3125 14.3126C14.9653 13.6598 15.75 13.3334 16.6667 13.3334C17.5833 13.3334 18.3681 13.6598 19.0208 14.3126C19.6736 14.9654 20 15.7501 20 16.6667C20 16.8031 19.9928 16.9366 19.9783 17.0671L29.2036 7.84187ZM14.6213 26.6667H23.3333V25.7501C23.3333 24.5279 22.7222 23.5417 21.5 22.7917C20.8817 22.4124 20.1639 22.1289 19.3466 21.9414L30 11.2881V17.5001L36.6667 10.8334V29.1667L30 22.5001V30.0001C30 30.9167 29.6736 31.7015 29.0208 32.3542C28.3681 33.007 27.5833 33.3334 26.6667 33.3334H7.95465L14.6213 26.6667Z" fill="#D9E0E4" fill-opacity="0.6"/>
</g>
</g>
</svg>
