<svg width="20" height="20" viewBox="0 0 20 20" fill="none" xmlns="http://www.w3.org/2000/svg">
<g id="Clip path group">
<mask id="mask0_1709_4457" style="mask-type:luminance" maskUnits="userSpaceOnUse" x="0" y="0" width="20" height="20">
<g id="clip0_1709_4437">
<path id="Vector" d="M20 0H0V20H20V0Z" fill="white"/>
</g>
</mask>
<g mask="url(#mask0_1709_4457)">
<g id="Group">
<path id="Vector_2" d="M7.97998 16.652C7.97998 16.8509 8.03222 17.0479 8.13371 17.2317C8.23521 17.4155 8.38397 17.5824 8.57151 17.7231C8.75904 17.8637 8.98168 17.9753 9.22671 18.0514C9.47174 18.1276 9.73437 18.1667 9.99959 18.1667C10.2649 18.1667 10.5275 18.1276 10.7725 18.0514C11.0175 17.9753 11.2402 17.8637 11.4277 17.7231C11.6153 17.5824 11.764 17.4155 11.8655 17.2317C11.967 17.0479 12.0192 16.8509 12.0192 16.652H9.99959H7.97998Z" fill="#5A6473"/>
<g id="Group_2" filter="url(#filter0_di_1709_4457)">
<path id="Vector_3" d="M3.57352 16.1471C3.21848 16.1471 2.93066 15.8592 2.93066 15.5042V14.9177C2.93066 14.5939 3.15344 14.3126 3.46867 14.2385C3.75234 14.1717 3.96467 13.9357 4.00117 13.6466L4.69782 8.12803C4.69782 6.89547 5.06598 5.80028 5.80229 4.84245C6.53861 3.88462 7.49582 3.25721 8.67392 2.96021V2.3365C8.67392 1.96525 8.73178 1.76478 8.98949 1.5049C9.2472 1.24503 9.63113 1 9.99929 1C10.3674 1 10.7514 1.24503 11.0091 1.5049C11.2668 1.76478 11.3247 1.96525 11.3247 2.3365V2.96021C12.5028 3.25721 13.46 3.88462 14.1963 4.84245C14.9326 5.80028 15.3008 6.89547 15.3008 8.12803L15.9974 13.6466C16.0339 13.9357 16.2462 14.1717 16.5299 14.2385C16.8451 14.3126 17.0679 14.5939 17.0679 14.9177V15.5042C17.0679 15.8592 16.7801 16.1471 16.4251 16.1471H3.57352Z" fill="#5A6473"/>
</g>
</g>
</g>
</g>
<defs>
<filter id="filter0_di_1709_4457" x="-0.402676" y="-2.33334" width="20.8039" height="21.8138" filterUnits="userSpaceOnUse" color-interpolation-filters="sRGB">
<feFlood flood-opacity="0" result="BackgroundImageFix"/>
<feColorMatrix in="SourceAlpha" type="matrix" values="0 0 0 0 0 0 0 0 0 0 0 0 0 0 0 0 0 0 127 0" result="hardAlpha"/>
<feOffset/>
<feGaussianBlur stdDeviation="1.66667"/>
<feComposite in2="hardAlpha" operator="out"/>
<feColorMatrix type="matrix" values="0 0 0 0 0.231373 0 0 0 0 0.407843 0 0 0 0 1 0 0 0 0.1 0"/>
<feBlend mode="normal" in2="BackgroundImageFix" result="effect1_dropShadow_1709_4457"/>
<feBlend mode="normal" in="SourceGraphic" in2="effect1_dropShadow_1709_4457" result="shape"/>
<feColorMatrix in="SourceAlpha" type="matrix" values="0 0 0 0 0 0 0 0 0 0 0 0 0 0 0 0 0 0 127 0" result="hardAlpha"/>
<feOffset/>
<feGaussianBlur stdDeviation="1.25"/>
<feComposite in2="hardAlpha" operator="arithmetic" k2="-1" k3="1"/>
<feColorMatrix type="matrix" values="0 0 0 0 0.231373 0 0 0 0 0.407843 0 0 0 0 1 0 0 0 0.38 0"/>
<feBlend mode="normal" in2="shape" result="effect2_innerShadow_1709_4457"/>
</filter>
</defs>
</svg>
