<svg width="26" height="25" viewBox="0 0 26 25" fill="none" xmlns="http://www.w3.org/2000/svg">
<g id="Group 247">
<path id="Ellipse 33" d="M10.6668 21.5834C10.6668 21.8132 10.7272 22.0408 10.8444 22.2531C10.9617 22.4654 11.1336 22.6583 11.3502 22.8208C11.5669 22.9833 11.8241 23.1122 12.1072 23.2002C12.3903 23.2881 12.6937 23.3334 13.0002 23.3334C13.3066 23.3334 13.61 23.2881 13.8931 23.2002C14.1762 23.1122 14.4334 22.9833 14.6501 22.8208C14.8667 22.6583 15.0386 22.4654 15.1559 22.2531C15.2731 22.0408 15.3335 21.8132 15.3335 21.5834L13.0002 21.5834H10.6668Z" fill="#191919"/>
<g id="notifications" filter="url(#filter0_bdi_598_2225)">
<path d="M5.7335 21C5.23644 21 4.8335 20.5971 4.8335 20.1V19.5797C4.8335 19.2056 5.09088 18.8806 5.45507 18.7949V18.7949C5.78282 18.7178 6.02813 18.4451 6.0703 18.1111L6.87516 11.7353C6.87516 10.3113 7.30051 9.04596 8.1512 7.93934C9.0019 6.83272 10.1078 6.10784 11.4689 5.76471V5.04412C11.4689 4.6152 11.5358 4.38358 11.8335 4.08333C12.1312 3.78309 12.5748 3.5 13.0002 3.5C13.4255 3.5 13.8691 3.78309 14.1668 4.08333C14.4646 4.38358 14.5314 4.6152 14.5314 5.04412V5.76471C15.8925 6.10784 16.9984 6.83272 17.8491 7.93934C18.6998 9.04596 19.1252 10.3113 19.1252 11.7353L19.93 18.1111C19.9722 18.4451 20.2175 18.7178 20.5453 18.7949V18.7949C20.9094 18.8806 21.1668 19.2056 21.1668 19.5797V20.1C21.1668 20.5971 20.7639 21 20.2668 21H5.7335Z" fill="#191919"/>
<path d="M7.01985 11.7536L7.021 11.7445V11.7353C7.021 10.3427 7.43615 9.1088 8.26682 8.02822C9.0974 6.94776 10.1751 6.24128 11.5046 5.90611L11.6147 5.87834V5.76471V5.04412C11.6147 4.83572 11.6313 4.6905 11.6767 4.56509C11.7213 4.44183 11.798 4.32627 11.937 4.18602C12.2238 3.89688 12.632 3.64583 13.0002 3.64583C13.3683 3.64583 13.7765 3.89688 14.0633 4.18602C14.2024 4.32627 14.279 4.44183 14.3236 4.56509C14.369 4.6905 14.3856 4.83572 14.3856 5.04412V5.76471V5.87834L14.4958 5.90611C15.8253 6.24128 16.9029 6.94776 17.7335 8.02822C18.5642 9.1088 18.9793 10.3427 18.9793 11.7353V11.7445L18.9805 11.7536L19.7853 18.1294C19.8351 18.5238 20.1248 18.8458 20.5119 18.9369C20.8102 19.0071 21.021 19.2733 21.021 19.5797V20.1C21.021 20.5165 20.6833 20.8542 20.2668 20.8542H5.7335C5.31698 20.8542 4.97933 20.5165 4.97933 20.1V19.5797C4.97933 19.2733 5.19016 19.0071 5.48847 18.9369C5.8755 18.8458 6.16518 18.5238 6.21498 18.1294L7.01985 11.7536Z" stroke="url(#paint0_linear_598_2225)" stroke-opacity="0.7" stroke-width="0.291667"/>
</g>
</g>
<defs>
<filter id="filter0_bdi_598_2225" x="0.833496" y="-0.5" width="24.3335" height="25.5" filterUnits="userSpaceOnUse" color-interpolation-filters="sRGB">
<feFlood flood-opacity="0" result="BackgroundImageFix"/>
<feGaussianBlur in="BackgroundImageFix" stdDeviation="1"/>
<feComposite in2="SourceAlpha" operator="in" result="effect1_backgroundBlur_598_2225"/>
<feColorMatrix in="SourceAlpha" type="matrix" values="0 0 0 0 0 0 0 0 0 0 0 0 0 0 0 0 0 0 127 0" result="hardAlpha"/>
<feOffset/>
<feGaussianBlur stdDeviation="2"/>
<feComposite in2="hardAlpha" operator="out"/>
<feColorMatrix type="matrix" values="0 0 0 0 0.231373 0 0 0 0 0.407843 0 0 0 0 1 0 0 0 0.1 0"/>
<feBlend mode="normal" in2="effect1_backgroundBlur_598_2225" result="effect2_dropShadow_598_2225"/>
<feBlend mode="normal" in="SourceGraphic" in2="effect2_dropShadow_598_2225" result="shape"/>
<feColorMatrix in="SourceAlpha" type="matrix" values="0 0 0 0 0 0 0 0 0 0 0 0 0 0 0 0 0 0 127 0" result="hardAlpha"/>
<feOffset/>
<feGaussianBlur stdDeviation="1.5"/>
<feComposite in2="hardAlpha" operator="arithmetic" k2="-1" k3="1"/>
<feColorMatrix type="matrix" values="0 0 0 0 0.231373 0 0 0 0 0.407843 0 0 0 0 1 0 0 0 0.38 0"/>
<feBlend mode="normal" in2="shape" result="effect3_innerShadow_598_2225"/>
</filter>
<linearGradient id="paint0_linear_598_2225" x1="5.24183" y1="6.125" x2="20.3587" y2="18.2185" gradientUnits="userSpaceOnUse">
<stop stop-color="white" stop-opacity="0.15"/>
<stop offset="1" stop-color="white" stop-opacity="0.44"/>
</linearGradient>
</defs>
</svg>
