<svg width="14" height="16" viewBox="0 0 14 16" fill="none" xmlns="http://www.w3.org/2000/svg">
<path id="note_alt" d="M3.17028 12.5956H4.77879L9.37453 8.0382L7.72772 6.39139L3.17028 10.9488V12.5956ZM9.9107 7.50203L10.715 6.65948C10.7916 6.58288 10.8299 6.49352 10.8299 6.39139C10.8299 6.28927 10.7916 6.19991 10.715 6.12331L9.64262 5.05097C9.56602 4.97437 9.47666 4.93608 9.37453 4.93608C9.2724 4.93608 9.18304 4.97437 9.10645 5.05097L8.26389 5.85522L9.9107 7.50203ZM1.63836 15.6595C1.21708 15.6595 0.856445 15.5095 0.556445 15.2095C0.256445 14.9095 0.106445 14.5488 0.106445 14.1276V3.40416C0.106445 2.98288 0.256445 2.62225 0.556445 2.32225C0.856445 2.02225 1.21708 1.87225 1.63836 1.87225H4.85538C5.02134 1.41267 5.299 1.04246 5.68836 0.761609C6.07772 0.480758 6.51496 0.340332 7.00006 0.340332C7.48517 0.340332 7.9224 0.480758 8.31177 0.761609C8.70113 1.04246 8.97879 1.41267 9.14474 1.87225H12.3618C12.783 1.87225 13.1437 2.02225 13.4437 2.32225C13.7437 2.62225 13.8937 2.98288 13.8937 3.40416V14.1276C13.8937 14.5488 13.7437 14.9095 13.4437 15.2095C13.1437 15.5095 12.783 15.6595 12.3618 15.6595H1.63836ZM7.00006 2.82969C7.16602 2.82969 7.30326 2.77544 7.41177 2.66693C7.52028 2.55842 7.57453 2.42118 7.57453 2.25523C7.57453 2.08927 7.52028 1.95203 7.41177 1.84352C7.30326 1.73501 7.16602 1.68076 7.00006 1.68076C6.83411 1.68076 6.69687 1.73501 6.58836 1.84352C6.47985 1.95203 6.42559 2.08927 6.42559 2.25523C6.42559 2.42118 6.47985 2.55842 6.58836 2.66693C6.69687 2.77544 6.83411 2.82969 7.00006 2.82969Z" fill="#191919"/>
</svg>
