<svg width="20" height="16" viewBox="0 0 20 16" fill="none" xmlns="http://www.w3.org/2000/svg">
<g id="Coupon 2">
<path id="Subtract" fill-rule="evenodd" clip-rule="evenodd" d="M4 0.685669C1.79086 0.685669 0 2.32303 0 4.34281V5.46103C0 5.63496 0.135404 5.78184 0.315254 5.83853C1.29568 6.1476 2 6.99857 2 7.99995C2 9.00133 1.29568 9.85231 0.315254 10.1614C0.135404 10.2181 0 10.3649 0 10.5389V11.6571C0 13.6769 1.79086 15.3142 4 15.3142H16C18.2091 15.3142 20 13.6769 20 11.6571V10.5389C20 10.3649 19.8646 10.2181 19.6847 10.1614C18.7043 9.85231 18 9.00133 18 7.99995C18 6.99857 18.7043 6.1476 19.6847 5.83853C19.8646 5.78184 20 5.63496 20 5.46103V4.34281C20 2.32303 18.2091 0.685669 16 0.685669H4ZM10.399 4.52826C10.1989 4.26338 9.80105 4.26338 9.601 4.52826L8.61056 5.83971C8.55073 5.91893 8.46868 5.97854 8.37485 6.01096L6.82152 6.54768C6.50778 6.65608 6.38483 7.0345 6.57493 7.30661L7.51613 8.65384C7.57298 8.73522 7.60432 8.83168 7.60616 8.93093L7.6366 10.5741C7.64275 10.906 7.96464 11.1398 8.28219 11.0431L9.85433 10.5643C9.94929 10.5354 10.0507 10.5354 10.1457 10.5643L11.7178 11.0431C12.0354 11.1398 12.3573 10.906 12.3634 10.5741L12.3938 8.93093C12.3957 8.83168 12.427 8.73522 12.4839 8.65384L13.4251 7.30661C13.6152 7.0345 13.4922 6.65608 13.1785 6.54768L11.6252 6.01096C11.5313 5.97854 11.4493 5.91893 11.3894 5.83971L10.399 4.52826Z" fill="#282828"/>
</g>
</svg>
