<svg width="18" height="14" viewBox="0 0 18 14" fill="none" xmlns="http://www.w3.org/2000/svg">
<g id="Coupon 2">
<path id="Subtract" fill-rule="evenodd" clip-rule="evenodd" d="M4.264 0.904297C2.42305 0.904297 0.930664 2.26876 0.930664 3.95192V4.88376C0.930664 5.02871 1.0435 5.1511 1.19338 5.19835C2.0104 5.4559 2.59733 6.16505 2.59733 6.99954C2.59733 7.83402 2.0104 8.54317 1.19338 8.80072C1.0435 8.84797 0.930664 8.97036 0.930664 9.11531V10.0472C0.930664 11.7303 2.42305 13.0948 4.264 13.0948H14.264C16.1049 13.0948 17.5973 11.7303 17.5973 10.0472V9.11531C17.5973 8.97036 17.4845 8.84797 17.3346 8.80072C16.5176 8.54317 15.9307 7.83402 15.9307 6.99954C15.9307 6.16505 16.5176 5.4559 17.3346 5.19835C17.4845 5.1511 17.5973 5.02871 17.5973 4.88376V3.95192C17.5973 2.26876 16.1049 0.904297 14.264 0.904297H4.264ZM9.59641 4.10646C9.4297 3.88572 9.09813 3.88572 8.93142 4.10646L8.10605 5.19933C8.05619 5.26535 7.98781 5.31503 7.90962 5.34204L6.61518 5.7893C6.35373 5.87964 6.25127 6.19499 6.40969 6.42175L7.19402 7.54444C7.2414 7.61226 7.26752 7.69264 7.26905 7.77535L7.29441 9.14465C7.29954 9.42122 7.56779 9.61611 7.8324 9.53552L9.14252 9.13651C9.22166 9.1124 9.30618 9.1124 9.38531 9.13651L10.6954 9.53552C10.96 9.61611 11.2283 9.42122 11.2334 9.14464L11.2588 7.77535C11.2603 7.69264 11.2864 7.61226 11.3338 7.54444L12.1181 6.42175C12.2766 6.19498 12.1741 5.87964 11.9126 5.7893L10.6182 5.34204C10.54 5.31503 10.4716 5.26535 10.4218 5.19933L9.59641 4.10646Z" fill="#5A6473"/>
</g>
</svg>
