<svg width="28" height="29" viewBox="0 0 28 29" fill="none" xmlns="http://www.w3.org/2000/svg">
<g id="icon/delete">
<mask id="mask0_687_4162" style="mask-type:alpha" maskUnits="userSpaceOnUse" x="0" y="0" width="28" height="29">
<rect id="Bounding box" y="0.5" width="28" height="28" fill="#D9D9D9"/>
</mask>
<g mask="url(#mask0_687_4162)">
<path id="delete_forever" d="M10.9667 19.75L14.0001 16.7167L17.0334 19.75L18.6667 18.1167L15.6334 15.0833L18.6667 12.05L17.0334 10.4167L14.0001 13.45L10.9667 10.4167L9.33342 12.05L12.3667 15.0833L9.33342 18.1167L10.9667 19.75ZM8.16675 25C7.52508 25 6.97578 24.7715 6.51883 24.3146C6.06189 23.8576 5.83341 23.3083 5.83341 22.6667V7.5H4.66675V5.16667H10.5001V4H17.5001V5.16667H23.3334V7.5H22.1667V22.6667C22.1667 23.3083 21.9383 23.8576 21.4813 24.3146C21.0244 24.7715 20.4751 25 19.8334 25H8.16675Z" fill="#6B778A"/>
</g>
</g>
</svg>
