<svg width="160" height="44" viewBox="0 0 160 44" fill="none" xmlns="http://www.w3.org/2000/svg">
<g id="&#235;&#161;&#156;&#234;&#179;&#160; svg" clip-path="url(#clip0_1709_4482)">
<path id="Vector" d="M19.8285 1H11.6411C9.58587 1 7.91943 2.66644 7.91943 4.72163V29.9003L17.5997 24.8182H19.8285V12.9091H31.7376V1H19.8285Z" fill="#DCFFF6"/>
<path id="Vector_2" d="M64.1528 14.1496H55.9653V26.0587H44.0562V37.9679H58.19L67.8702 43.0499V17.8712C67.8702 15.816 66.2038 14.1496 64.1487 14.1496H64.1528Z" fill="url(#paint0_linear_1709_4482)"/>
<path id="Vector_3" d="M30.989 18.3551C30.989 15.4646 33.3295 13.1241 36.2199 13.1241H43.6424V4.72163C43.6424 2.66644 41.976 1 39.9209 1H31.7333V12.9091H19.8242V24.8182H30.9848V18.3551H30.989Z" fill="url(#paint1_linear_1709_4482)"/>
<path id="Vector_4" d="M44.0561 14.1496H36.2986C34.0036 14.1496 32.147 16.0104 32.147 18.3012V34.2421C32.147 36.2972 33.8134 37.9637 35.8685 37.9637H44.0561V26.0545H55.9652V14.1454H44.0561V14.1496Z" fill="#5039FA"/>
<path id="Vector_5" d="M94.0909 13.7198V21.0679H95.9341V24.7542H94.0909V32.3972H89.4703V13.7198H94.0909ZM87.7995 13.9164V31.66H76.814V13.9164H87.7995ZM83.1789 17.6027H81.4338V27.9737H83.1789V17.6027ZM110.038 13.7198H114.658V32.3972H110.038V13.7198ZM102.911 13.9164C104.713 13.9164 106.081 14.3915 107.015 15.3418C107.948 16.2921 108.415 17.6847 108.415 19.5197V26.0567C108.415 27.8917 107.948 29.2844 107.015 30.2346C106.081 31.1849 104.713 31.66 102.911 31.66C101.108 31.66 99.7403 31.1849 98.8061 30.2346C97.8726 29.2844 97.4058 27.8917 97.4058 26.0567V19.5197C97.4058 17.6847 97.8726 16.2921 98.8061 15.3418C99.7403 14.3915 101.108 13.9164 102.911 13.9164ZM102.911 17.6027C102.305 17.6027 102.001 17.9141 102.001 18.5366V27.0397C102.001 27.6624 102.305 27.9737 102.911 27.9737C103.517 27.9737 103.82 27.6624 103.82 27.0397V18.5366C103.82 17.9141 103.517 17.6027 102.911 17.6027ZM130.196 13.7198H134.816V32.3972H130.196V13.7198ZM117.614 17.6765V13.9656H128.623V17.6765H117.614ZM127.886 18.6595L127.714 27.9491H128.623V31.66H117.614V27.9491H118.523L118.351 18.6595H122.479L122.651 27.9491H123.585L123.757 18.6595H127.886ZM146.62 20.773C145.719 21.9854 144.589 22.9602 143.229 23.6975C141.886 24.4347 140.394 24.8689 138.756 25L137.773 21.5594C139.018 21.4775 140.124 21.0925 141.091 20.4043C142.057 19.7162 142.819 18.7987 143.376 17.6519C143.949 16.4886 144.261 15.1779 144.31 13.7198H148.93C148.979 15.1779 149.283 16.4886 149.839 17.6519C150.413 18.7987 151.183 19.7162 152.15 20.4043C153.116 21.0925 154.222 21.4775 155.468 21.5594L154.484 25C152.846 24.8689 151.347 24.4347 149.987 23.6975C148.644 22.9602 147.521 21.9854 146.62 20.773ZM137.773 31.66V27.9737H155.468V31.66H137.773Z" fill="#5039FA"/>
</g>
<defs>
<linearGradient id="paint0_linear_1709_4482" x1="44.0562" y1="28.5977" x2="67.8744" y2="28.5977" gradientUnits="userSpaceOnUse">
<stop stop-color="#5039FA"/>
<stop offset="0.14" stop-color="#6E5EFA"/>
<stop offset="0.35" stop-color="#948EFA"/>
<stop offset="0.54" stop-color="#B3B4FB"/>
<stop offset="0.72" stop-color="#C9CFFB"/>
<stop offset="0.88" stop-color="#D6E0FB"/>
<stop offset="1" stop-color="#DBE6FC"/>
</linearGradient>
<linearGradient id="paint1_linear_1709_4482" x1="41.6411" y1="14.9519" x2="18.5051" y2="10.8747" gradientUnits="userSpaceOnUse">
<stop offset="0.03" stop-color="#66EDCD"/>
<stop offset="0.18" stop-color="#6CEECF"/>
<stop offset="0.38" stop-color="#7FF0D5"/>
<stop offset="0.62" stop-color="#9EF5E0"/>
<stop offset="0.89" stop-color="#C8FCEF"/>
<stop offset="1" stop-color="#DCFFF6"/>
</linearGradient>
<clipPath id="clip0_1709_4482">
<rect width="160" height="44" fill="white"/>
</clipPath>
</defs>
</svg>
