<svg width="24" height="24" viewBox="0 0 24 24" fill="none" xmlns="http://www.w3.org/2000/svg">
<g id="icon/&#236;&#160;&#149;&#235;&#166;&#172;&#235;&#133;&#184;&#237;&#138;&#184;">
<mask id="mask0_759_236" style="mask-type:alpha" maskUnits="userSpaceOnUse" x="0" y="0" width="24" height="24">
<rect id="Bounding box" width="24" height="24" fill="#D9D9D9"/>
</mask>
<g mask="url(#mask0_759_236)">
<path id="folder_check" d="M11.0921 13.576L9.83053 12.3219C9.71303 12.2045 9.57559 12.1445 9.41822 12.1419C9.26086 12.1394 9.12092 12.1994 8.99842 12.3219C8.88105 12.4393 8.82237 12.5787 8.82237 12.7401C8.82237 12.9016 8.88105 13.041 8.99842 13.1584L10.5728 14.7525C10.7156 14.8953 10.8854 14.9666 11.0822 14.9666C11.2791 14.9666 11.4489 14.8953 11.5916 14.7525L14.8557 11.4807C14.9731 11.3634 15.0318 11.2239 15.0318 11.0625C15.0318 10.9011 14.9731 10.7616 14.8557 10.6443C14.7384 10.5269 14.5989 10.4682 14.4375 10.4682C14.2761 10.4682 14.1366 10.5269 14.0193 10.6443L11.0921 13.576ZM5.92717 17.8421C5.52836 17.8421 5.19079 17.7039 4.91447 17.4276C4.63816 17.1513 4.5 16.8137 4.5 16.4149V7.42717C4.5 7.02835 4.63816 6.69079 4.91447 6.41447C5.19079 6.13816 5.52836 6 5.92717 6H9.67105C9.86132 6 10.0443 6.03697 10.2199 6.11092C10.3955 6.18474 10.548 6.28645 10.6776 6.41605L11.8405 7.57895H18.0728C18.4716 7.57895 18.8092 7.7171 19.0855 7.99342C19.3618 8.26974 19.5 8.6073 19.5 9.00612V16.4149C19.5 16.8137 19.3618 17.1513 19.0855 17.4276C18.8092 17.7039 18.4716 17.8421 18.0728 17.8421H5.92717Z" fill="#191919"/>
</g>
</g>
</svg>
