<svg width="26" height="24" viewBox="0 0 26 24" fill="none" xmlns="http://www.w3.org/2000/svg">
<g id="icon/&#236;&#139;&#160;&#236;&#178;&#180;&#234;&#178;&#128;&#236;&#167;&#132;">
<mask id="mask0_759_231" style="mask-type:alpha" maskUnits="userSpaceOnUse" x="0" y="0" width="26" height="24">
<rect id="Bounding box" width="26" height="24" fill="#D9D9D9"/>
</mask>
<g mask="url(#mask0_759_231)">
<path id="breaking_news_alt_1" d="M8.7068 15.6118H11.3778C11.5535 15.6118 11.7008 15.557 11.8195 15.4472C11.9384 15.3374 11.9979 15.2015 11.9979 15.0393C11.9979 14.877 11.9384 14.7411 11.8195 14.6316C11.7008 14.5219 11.5535 14.4671 11.3778 14.4671H8.7068C8.53111 14.4671 8.38381 14.522 8.2649 14.6318C8.14612 14.7415 8.08673 14.8775 8.08673 15.0397C8.08673 15.202 8.14612 15.3379 8.2649 15.4474C8.38381 15.557 8.53111 15.6118 8.7068 15.6118ZM8.7068 12.5592H11.3778C11.5535 12.5592 11.7008 12.5043 11.8195 12.3946C11.9384 12.2848 11.9979 12.1488 11.9979 11.9867C11.9979 11.8244 11.9384 11.6884 11.8195 11.5789C11.7008 11.4693 11.5535 11.4145 11.3778 11.4145H8.7068C8.53111 11.4145 8.38381 11.4694 8.2649 11.5791C8.14612 11.6889 8.08673 11.8249 8.08673 11.987C8.08673 12.1493 8.14612 12.2852 8.2649 12.3947C8.38381 12.5044 8.53111 12.5592 8.7068 12.5592ZM16.7513 8.36184C16.5756 8.36184 16.4284 8.41673 16.3096 8.52649C16.191 8.63613 16.1317 8.77204 16.1317 8.93421V11.9868C16.1317 12.149 16.1911 12.2849 16.3098 12.3946C16.4288 12.5043 16.5761 12.5592 16.7519 12.5592C16.9276 12.5592 17.0749 12.5043 17.1936 12.3946C17.3123 12.2849 17.3716 12.149 17.3716 11.9868V8.93421C17.3716 8.77204 17.3122 8.63613 17.1934 8.52649C17.0745 8.41673 16.9271 8.36184 16.7513 8.36184ZM8.7068 9.50658H11.3778C11.5535 9.50658 11.7008 9.45169 11.8195 9.34193C11.9384 9.23216 11.9979 9.09619 11.9979 8.93402C11.9979 8.77172 11.9384 8.63582 11.8195 8.5263C11.7008 8.41666 11.5535 8.36184 11.3778 8.36184H8.7068C8.53111 8.36184 8.38381 8.41673 8.2649 8.52649C8.14612 8.63626 8.08673 8.77223 8.08673 8.9344C8.08673 9.0967 8.14612 9.2326 8.2649 9.34212C8.38381 9.45176 8.53111 9.50658 8.7068 9.50658ZM6.36957 18.4737C5.95192 18.4737 5.59841 18.3401 5.30905 18.073C5.01968 17.8059 4.875 17.4796 4.875 17.0941V6.8796C4.875 6.49408 5.01968 6.16776 5.30905 5.90066C5.59841 5.63355 5.95192 5.5 6.36957 5.5H19.0888C19.5064 5.5 19.8599 5.63355 20.1493 5.90066C20.4387 6.16776 20.5833 6.49408 20.5833 6.8796V17.0941C20.5833 17.4796 20.4387 17.8059 20.1493 18.073C19.8599 18.3401 19.5064 18.4737 19.0888 18.4737H6.36957ZM16.7519 15.6118C16.9276 15.6118 17.0749 15.557 17.1936 15.4472C17.3123 15.3374 17.3716 15.2015 17.3716 15.0393C17.3716 14.877 17.3122 14.7411 17.1934 14.6316C17.0745 14.5219 16.9271 14.4671 16.7513 14.4671C16.5756 14.4671 16.4284 14.522 16.3096 14.6318C16.191 14.7415 16.1317 14.8775 16.1317 15.0397C16.1317 15.202 16.1911 15.3379 16.3098 15.4474C16.4288 15.557 16.5761 15.6118 16.7519 15.6118Z" fill="#191919"/>
</g>
</g>
</svg>
