<svg width="26" height="27" viewBox="0 0 26 27" fill="none" xmlns="http://www.w3.org/2000/svg">
<g id="icon/share">
<mask id="mask0_687_4163" style="mask-type:alpha" maskUnits="userSpaceOnUse" x="0" y="0" width="26" height="27">
<rect id="Bounding box" y="0.5" width="26" height="26" fill="#D9D9D9"/>
</mask>
<g mask="url(#mask0_687_4163)">
<path id="open_in_new" d="M5.75014 22.7083C5.20288 22.7083 4.73966 22.5187 4.3605 22.1396C3.98133 21.7604 3.79175 21.2972 3.79175 20.7499V6.25005C3.79175 5.70279 3.98133 5.23957 4.3605 4.86041C4.73966 4.48124 5.20288 4.29166 5.75014 4.29166H11.7708C12.0013 4.29166 12.1944 4.36948 12.3501 4.52511C12.5055 4.68057 12.5833 4.87359 12.5833 5.10416C12.5833 5.33473 12.5055 5.52774 12.3501 5.6832C12.1944 5.83884 12.0013 5.91666 11.7708 5.91666H5.75014C5.66673 5.91666 5.59035 5.95141 5.52102 6.02093C5.45151 6.09026 5.41675 6.16664 5.41675 6.25005V20.7499C5.41675 20.8333 5.45151 20.9097 5.52102 20.9791C5.59035 21.0486 5.66673 21.0833 5.75014 21.0833H20.25C20.3334 21.0833 20.4098 21.0486 20.4791 20.9791C20.5487 20.9097 20.5834 20.8333 20.5834 20.7499V14.7293C20.5834 14.4987 20.6612 14.3056 20.8169 14.15C20.9723 13.9945 21.1653 13.9168 21.3959 13.9168C21.6265 13.9168 21.8195 13.9945 21.975 14.15C22.1306 14.3056 22.2084 14.4987 22.2084 14.7293V20.7499C22.2084 21.2972 22.0188 21.7604 21.6397 22.1396C21.2605 22.5187 20.7973 22.7083 20.25 22.7083H5.75014ZM20.5834 7.05822L11.1002 16.5417C10.9501 16.6916 10.7616 16.7683 10.5344 16.7719C10.3075 16.7754 10.1154 16.6986 9.95835 16.5417C9.80145 16.3846 9.723 16.1943 9.723 15.9708C9.723 15.7473 9.80145 15.557 9.95835 15.3999L19.4419 5.91666H15.9792C15.7487 5.91666 15.5557 5.83884 15.4002 5.6832C15.2446 5.52774 15.1667 5.33473 15.1667 5.10416C15.1667 4.87359 15.2446 4.68057 15.4002 4.52511C15.5557 4.36948 15.7487 4.29166 15.9792 4.29166H21.2291C21.5084 4.29166 21.7414 4.38509 21.9281 4.57197C22.115 4.75866 22.2084 4.99167 22.2084 5.27099V10.5208C22.2084 10.7514 22.1306 10.9444 21.975 11.0999C21.8195 11.2555 21.6265 11.3333 21.3959 11.3333C21.1653 11.3333 20.9723 11.2555 20.8169 11.0999C20.6612 10.9444 20.5834 10.7514 20.5834 10.5208V7.05822Z" fill="#6B778A"/>
</g>
</g>
</svg>
