<svg width="24" height="25" viewBox="0 0 24 25" fill="none" xmlns="http://www.w3.org/2000/svg">
<g id="Icon_close">
<mask id="mask0_1604_2741" style="mask-type:alpha" maskUnits="userSpaceOnUse" x="0" y="0" width="24" height="25">
<rect id="Bounding box" y="0.0195312" width="24" height="24" fill="#D9D9D9"/>
</mask>
<g mask="url(#mask0_1604_2741)">
<path id="stat_1" d="M11.9998 10.8199L8.0998 14.6949C7.91647 14.8783 7.6873 14.9741 7.4123 14.9824C7.1373 14.9908 6.8998 14.8949 6.6998 14.6949C6.51647 14.5116 6.4248 14.2783 6.4248 13.9949C6.4248 13.7116 6.51647 13.4783 6.6998 13.2949L11.2998 8.69492C11.3998 8.59492 11.5081 8.52409 11.6248 8.48242C11.7415 8.44076 11.8665 8.41992 11.9998 8.41992C12.1331 8.41992 12.2581 8.44076 12.3748 8.48242C12.4915 8.52409 12.5998 8.59492 12.6998 8.69492L17.2998 13.2949C17.4831 13.4783 17.579 13.7074 17.5873 13.9824C17.5956 14.2574 17.4998 14.4949 17.2998 14.6949C17.1165 14.8783 16.8831 14.9699 16.5998 14.9699C16.3165 14.9699 16.0831 14.8783 15.8998 14.6949L11.9998 10.8199Z" fill="#4B535D"/>
</g>
</g>
</svg>
