<svg width="22" height="23" viewBox="0 0 22 23" fill="none" xmlns="http://www.w3.org/2000/svg">
<g id="question_mark">
<mask id="mask0_667_8857" style="mask-type:alpha" maskUnits="userSpaceOnUse" x="0" y="0" width="22" height="23">
<rect id="Bounding box" y="0.0195312" width="22" height="22" fill="#D9D9D9"/>
</mask>
<g mask="url(#mask0_667_8857)">
<path id="question_mark_2" d="M9.71689 14.6862C9.71689 13.4487 9.82766 12.5588 10.0492 12.0164C10.2707 11.474 10.7405 10.882 11.4586 10.2404C12.085 9.69036 12.5624 9.21293 12.8909 8.80807C13.2193 8.40321 13.3836 7.94106 13.3836 7.42161C13.3836 6.79523 13.1735 6.27578 12.7534 5.86328C12.3332 5.45078 11.7488 5.24453 11.0002 5.24453C10.2211 5.24453 9.62905 5.48134 9.22419 5.95495C8.81933 6.42856 8.53287 6.90981 8.36481 7.3987L6.00439 6.39036C6.32523 5.41259 6.91342 4.56467 7.76898 3.84661C8.62453 3.12856 9.70162 2.76953 11.0002 2.76953C12.6044 2.76953 13.8381 3.21641 14.7013 4.11016C15.5645 5.00391 15.9961 6.07717 15.9961 7.32995C15.9961 8.09384 15.8318 8.74696 15.5034 9.28932C15.1749 9.83168 14.6593 10.4466 13.9565 11.1341C13.2079 11.8522 12.7534 12.3984 12.5929 12.7727C12.4325 13.147 12.3523 13.7848 12.3523 14.6862H9.71689ZM11.0002 20.1862C10.4961 20.1862 10.0645 20.0067 9.70544 19.6477C9.34641 19.2886 9.16689 18.857 9.16689 18.3529C9.16689 17.8487 9.34641 17.4171 9.70544 17.0581C10.0645 16.699 10.4961 16.5195 11.0002 16.5195C11.5044 16.5195 11.936 16.699 12.295 17.0581C12.654 17.4171 12.8336 17.8487 12.8336 18.3529C12.8336 18.857 12.654 19.2886 12.295 19.6477C11.936 20.0067 11.5044 20.1862 11.0002 20.1862Z" fill="#4B535D"/>
</g>
</g>
</svg>
